STARTFONT 2.3
FONT -FontForge-Courgette-Book-R-Normal--16-160-72-72-P-83-ISO10646-1
SIZE 16 72 72  2
FONTBOUNDINGBOX 21 21 -3 -5
COMMENT "Generated by fontforge, http://fontforge.sourceforge.net"
COMMENT "Copyright (c) 2012, Sorkin Type Co (www.sorkintype.com) with Reserved Font Name "Courgette"."
STARTPROPERTIES 41
FOUNDRY "FontForge"
FAMILY_NAME "Courgette"
WEIGHT_NAME "Book"
SLANT "R"
SETWIDTH_NAME "Normal"
ADD_STYLE_NAME ""
PIXEL_SIZE 16
POINT_SIZE 160
RESOLUTION_X 72
RESOLUTION_Y 72
SPACING "P"
AVERAGE_WIDTH 83
CHARSET_REGISTRY "ISO10646"
CHARSET_ENCODING "1"
FONTNAME_REGISTRY ""
CHARSET_COLLECTIONS "ISO8859-2 ISO8859-9 ISO8859-4 ISO10646-1"
BITS_PER_PIXEL 2
FONT_NAME "Courgette-Regular"
FACE_NAME "Courgette Regular"
COPYRIGHT "Copyright (c) 2012, Sorkin Type Co (www.sorkintype.com) with Reserved Font Name "Courgette"."
FONT_VERSION "1.002"
FONT_ASCENT 13
FONT_DESCENT 3
UNDERLINE_POSITION -2
UNDERLINE_THICKNESS 1
X_HEIGHT 7
CAP_HEIGHT 11
DEFAULT_CHAR 1
RAW_ASCENT 799
RAW_DESCENT 200
NORM_SPACE 5
RELATIVE_WEIGHT 40
RELATIVE_SETWIDTH 50
SUPERSCRIPT_X 0
SUPERSCRIPT_Y 7
SUPERSCRIPT_SIZE 10
SUBSCRIPT_X 0
SUBSCRIPT_Y 2
SUBSCRIPT_SIZE 10
AVG_LOWERCASE_WIDTH 80
AVG_UPPERCASE_WIDTH 93
ENDPROPERTIES
CHARS 407
STARTCHAR .null.dup1
ENCODING 0
SWIDTH 0 0
DWIDTH 0 0
BBX 1 1 0 0
BITMAP
00
ENDCHAR
STARTCHAR uni0001
ENCODING 1
SWIDTH 0 0
DWIDTH 0 0
BBX 1 1 0 0
BITMAP
00
ENDCHAR
STARTCHAR uni0002
ENCODING 2
SWIDTH 0 0
DWIDTH 0 0
BBX 1 1 0 0
BITMAP
00
ENDCHAR
STARTCHAR uni0003
ENCODING 3
SWIDTH 0 0
DWIDTH 0 0
BBX 1 1 0 0
BITMAP
00
ENDCHAR
STARTCHAR uni0004
ENCODING 4
SWIDTH 0 0
DWIDTH 0 0
BBX 1 1 0 0
BITMAP
00
ENDCHAR
STARTCHAR uni0005
ENCODING 5
SWIDTH 0 0
DWIDTH 0 0
BBX 1 1 0 0
BITMAP
00
ENDCHAR
STARTCHAR uni0006
ENCODING 6
SWIDTH 0 0
DWIDTH 0 0
BBX 1 1 0 0
BITMAP
00
ENDCHAR
STARTCHAR uni0007
ENCODING 7
SWIDTH 0 0
DWIDTH 0 0
BBX 1 1 0 0
BITMAP
00
ENDCHAR
STARTCHAR uni0008
ENCODING 8
SWIDTH 0 0
DWIDTH 0 0
BBX 1 1 0 0
BITMAP
00
ENDCHAR
STARTCHAR uni0009
ENCODING 9
SWIDTH 0 0
DWIDTH 0 0
BBX 1 1 0 0
BITMAP
00
ENDCHAR
STARTCHAR nonmarkingreturn
ENCODING 13
SWIDTH 0 0
DWIDTH 0 0
BBX 1 1 0 0
BITMAP
00
ENDCHAR
STARTCHAR uni0015
ENCODING 21
SWIDTH 0 0
DWIDTH 0 0
BBX 1 1 0 0
BITMAP
00
ENDCHAR
STARTCHAR uni0016
ENCODING 22
SWIDTH 0 0
DWIDTH 0 0
BBX 1 1 0 0
BITMAP
00
ENDCHAR
STARTCHAR uni0017
ENCODING 23
SWIDTH 0 0
DWIDTH 0 0
BBX 1 1 0 0
BITMAP
00
ENDCHAR
STARTCHAR uni0018
ENCODING 24
SWIDTH 0 0
DWIDTH 0 0
BBX 1 1 0 0
BITMAP
00
ENDCHAR
STARTCHAR uni0019
ENCODING 25
SWIDTH 0 0
DWIDTH 0 0
BBX 1 1 0 0
BITMAP
00
ENDCHAR
STARTCHAR space
ENCODING 32
SWIDTH 307 0
DWIDTH 5 0
BBX 1 1 0 0
BITMAP
00
ENDCHAR
STARTCHAR exclam
ENCODING 33
SWIDTH 417 0
DWIDTH 7 0
BBX 7 12 1 0
BITMAP
00B4
01E0
03C0
0780
0B00
0E00
1C00
1800
1400
1400
B800
7400
ENDCHAR
STARTCHAR quotedbl
ENCODING 34
SWIDTH 437 0
DWIDTH 7 0
BBX 6 4 2 9
BITMAP
38B0
B5E0
A1C0
8140
ENDCHAR
STARTCHAR numbersign
ENCODING 35
SWIDTH 725 0
DWIDTH 12 0
BBX 11 12 1 0
BITMAP
0024A0
0075D0
00A2C0
00D380
2FFFF4
028A00
034D00
BFFFD0
092800
0C3400
1C7000
246000
ENDCHAR
STARTCHAR dollar
ENCODING 36
SWIDTH 545 0
DWIDTH 9 0
BBX 9 16 1 -2
BITMAP
000700
000A00
01BD00
074700
0E0740
2D0B40
2D1E00
2E1800
0F4000
07C000
02D000
D1D000
E1C000
7E4000
300000
600000
ENDCHAR
STARTCHAR percent
ENCODING 37
SWIDTH 876 0
DWIDTH 14 0
BBX 12 12 1 0
BITMAP
0B801D
38E038
B0E0E0
A1D2C0
A38B40
6E1D00
0074BD
00E2CA
02874B
0B070E
1C072C
3402E4
ENDCHAR
STARTCHAR ampersand
ENCODING 38
SWIDTH 563 0
DWIDTH 9 0
BBX 9 12 0 0
BITMAP
00BE40
03D1C0
0B41C0
1E0B80
1D0F00
0E5000
0BE000
2E0000
787F80
742C00
787400
1F9000
ENDCHAR
STARTCHAR quotesingle
ENCODING 39
SWIDTH 231 0
DWIDTH 4 0
BBX 3 4 2 9
BITMAP
38
B4
A0
80
ENDCHAR
STARTCHAR parenleft
ENCODING 40
SWIDTH 478 0
DWIDTH 8 0
BBX 9 18 1 -4
BITMAP
000640
001D00
007400
01D000
038000
074000
0E0000
1D0000
2C0000
380000
380000
780000
740000
380000
380000
2C0000
0E0000
074000
ENDCHAR
STARTCHAR parenright
ENCODING 41
SWIDTH 478 0
DWIDTH 8 0
BBX 9 18 -2 -4
BITMAP
003400
001C00
000E00
000B00
000B40
000740
000740
000B40
000B00
000E00
001D00
002C00
003800
00B000
01D000
074000
1D0000
640000
ENDCHAR
STARTCHAR asterisk
ENCODING 42
SWIDTH 518 0
DWIDTH 8 0
BBX 6 6 2 6
BITMAP
0780
5B00
7AF0
2F40
7740
8280
ENDCHAR
STARTCHAR plus
ENCODING 43
SWIDTH 617 0
DWIDTH 10 0
BBX 8 8 1 2
BITMAP
0180
0280
0280
0280
BFFE
0280
0280
0140
ENDCHAR
STARTCHAR comma
ENCODING 44
SWIDTH 312 0
DWIDTH 5 0
BBX 3 5 0 -2
BITMAP
14
7C
3C
34
90
ENDCHAR
STARTCHAR hyphen
ENCODING 45
SWIDTH 452 0
DWIDTH 7 0
BBX 5 1 1 4
BITMAP
7F80
ENDCHAR
STARTCHAR period
ENCODING 46
SWIDTH 270 0
DWIDTH 4 0
BBX 3 3 0 -1
BITMAP
78
B8
10
ENDCHAR
STARTCHAR slash
ENCODING 47
SWIDTH 405 0
DWIDTH 7 0
BBX 10 17 -1 -3
BITMAP
000070
0000A0
0001C0
000380
000B00
000D00
002C00
007400
00A000
01D000
038000
070000
0D0000
2C0000
340000
A00000
D00000
ENDCHAR
STARTCHAR zero
ENCODING 48
SWIDTH 621 0
DWIDTH 10 0
BBX 9 12 1 0
BITMAP
006E40
02D280
0B42C0
1E02C0
2C0380
780780
B40B40
B00F00
E02D00
E07800
A1E000
2F4000
ENDCHAR
STARTCHAR one
ENCODING 49
SWIDTH 405 0
DWIDTH 7 0
BBX 6 12 1 0
BITMAP
01D0
0BD0
3AD0
02C0
0380
0740
0A00
0D00
2C00
3400
6000
8000
ENDCHAR
STARTCHAR two
ENCODING 50
SWIDTH 524 0
DWIDTH 8 0
BBX 9 12 0 0
BITMAP
01BD00
078740
0B0340
0F4740
060F00
002D00
00B400
02D000
0A0000
280000
7BFC00
91B800
ENDCHAR
STARTCHAR three
ENCODING 51
SWIDTH 537 0
DWIDTH 9 0
BBX 9 12 0 0
BITMAP
00BE00
038380
0B0280
0B4380
064B40
006E00
01F400
017800
142C00
383800
74B000
2F8000
ENDCHAR
STARTCHAR four
ENCODING 52
SWIDTH 529 0
DWIDTH 8 0
BBX 8 12 1 0
BITMAP
0600
0B00
0F00
1D18
3C2C
B438
E074
BFFD
01D0
0280
0700
0900
ENDCHAR
STARTCHAR five
ENCODING 53
SWIDTH 540 0
DWIDTH 9 0
BBX 10 12 0 0
BITMAP
00FAA0
01DBD0
028000
074000
0BB800
0E1E00
040F00
000E00
241D00
743C00
74B400
2F8000
ENDCHAR
STARTCHAR six
ENCODING 54
SWIDTH 554 0
DWIDTH 9 0
BBX 8 12 1 0
BITMAP
00BE
0383
0B0B
1D1D
3800
7AE4
BD2C
B42C
F02C
A078
71E0
2F80
ENDCHAR
STARTCHAR seven
ENCODING 55
SWIDTH 473 0
DWIDTH 8 0
BBX 8 12 1 0
BITMAP
3FFE
1F9D
0038
00B0
01D0
0380
0B00
1D00
2C00
3800
7800
2400
ENDCHAR
STARTCHAR eight
ENCODING 56
SWIDTH 524 0
DWIDTH 8 0
BBX 9 12 0 0
BITMAP
00BE00
028780
070380
070380
074740
03DD00
02F400
0AB000
283400
742800
383400
1F9000
ENDCHAR
STARTCHAR nine
ENCODING 57
SWIDTH 554 0
DWIDTH 9 0
BBX 8 12 1 0
BITMAP
01F8
0B0E
1D0A
3C0E
781E
742D
387D
1FAC
0034
90A0
D2C0
BE00
ENDCHAR
STARTCHAR colon
ENCODING 58
SWIDTH 312 0
DWIDTH 5 0
BBX 4 8 0 -1
BITMAP
0F
0F
05
00
00
78
7C
10
ENDCHAR
STARTCHAR semicolon
ENCODING 59
SWIDTH 312 0
DWIDTH 5 0
BBX 5 10 0 -2
BITMAP
0500
0F40
0A00
0000
0000
1400
7C00
3C00
3400
9000
ENDCHAR
STARTCHAR less
ENCODING 60
SWIDTH 637 0
DWIDTH 10 0
BBX 8 8 1 1
BITMAP
0007
0079
07D0
7D00
7900
0B80
00B8
000B
ENDCHAR
STARTCHAR equal
ENCODING 61
SWIDTH 617 0
DWIDTH 10 0
BBX 8 4 1 4
BITMAP
7FFF
0000
0000
BFFE
ENDCHAR
STARTCHAR greater
ENCODING 62
SWIDTH 606 0
DWIDTH 10 0
BBX 8 8 1 1
BITMAP
A400
1E40
02E4
002E
006D
06D0
2E00
A000
ENDCHAR
STARTCHAR question
ENCODING 63
SWIDTH 516 0
DWIDTH 8 0
BBX 8 12 1 0
BITMAP
01F8
074D
0B0A
0B1D
007C
02E0
0B80
1D00
1800
0000
B800
7400
ENDCHAR
STARTCHAR at
ENCODING 64
SWIDTH 905 0
DWIDTH 14 0
BBX 14 13 0 -2
BITMAP
000AFA00
00A406C0
028000A0
0A06DC70
1C1D7C30
28783470
34B0B0A0
34B0E0D0
74B2A280
38787900
2C000000
0B405000
01BE8000
ENDCHAR
STARTCHAR A
ENCODING 65
SWIDTH 615 0
DWIDTH 10 0
BBX 12 12 -1 0
BITMAP
00006D
0002AC
000A38
001C74
0074B0
00A0E0
02FFF8
0B96D0
0B03C0
1D0380
380380
E002E0
ENDCHAR
STARTCHAR B
ENCODING 66
SWIDTH 551 0
DWIDTH 9 0
BBX 10 12 0 0
BITMAP
06FE40
2E41D0
02C0E0
0781D0
0B43C0
1E1F40
2FFC00
391E00
340E00
741E00
347800
2F9000
ENDCHAR
STARTCHAR C
ENCODING 67
SWIDTH 533 0
DWIDTH 9 0
BBX 10 12 0 0
BITMAP
001F80
00B4A0
03C0E0
0B42D0
1E0B80
2D0100
3C0000
380000
780000
380000
2C1D00
0BE400
ENDCHAR
STARTCHAR D
ENCODING 68
SWIDTH 630 0
DWIDTH 10 0
BBX 11 12 0 0
BITMAP
0AFE40
1E01E0
0190B0
03C074
078074
0F00B0
1E00E0
2D02D0
3C0780
381E00
74B800
2F9000
ENDCHAR
STARTCHAR E
ENCODING 69
SWIDTH 509 0
DWIDTH 8 0
BBX 10 12 0 0
BITMAP
006F80
02E0D0
0781D0
0F0B80
0E0A00
0E0000
07F000
1F4000
3D0000
780800
786800
1FE000
ENDCHAR
STARTCHAR F
ENCODING 70
SWIDTH 518 0
DWIDTH 8 0
BBX 10 12 0 0
BITMAP
1FA420
383BD0
34B400
10F000
01E000
02D000
0BFE00
0B8000
0B4000
0E0000
2C0000
740000
ENDCHAR
STARTCHAR G
ENCODING 71
SWIDTH 598 0
DWIDTH 10 0
BBX 9 12 1 0
BITMAP
007E00
02D280
0B4280
2D0B80
381F00
B40800
F01000
E0BF40
E03E00
E03400
B0A000
2F8000
ENDCHAR
STARTCHAR H
ENCODING 72
SWIDTH 668 0
DWIDTH 11 0
BBX 12 12 -1 0
BITMAP
07F007
01740B
00B00F
00F01E
00E02C
02FBFE
07C07D
0780B4
0B00E0
0E01D0
2C01D0
6001E4
ENDCHAR
STARTCHAR I
ENCODING 73
SWIDTH 327 0
DWIDTH 5 0
BBX 6 12 0 0
BITMAP
0BD0
05E0
01D0
02D0
03C0
0380
0740
0F00
1E00
2C00
7400
D000
ENDCHAR
STARTCHAR J
ENCODING 74
SWIDTH 393 0
DWIDTH 6 0
BBX 10 16 -3 -4
BITMAP
002FD0
00F4E0
0051E0
0002D0
0002C0
000380
000740
000F00
001E00
002D00
007800
00B000
01D000
078000
1E0000
740000
ENDCHAR
STARTCHAR K
ENCODING 75
SWIDTH 616 0
DWIDTH 10 0
BBX 12 12 -1 0
BITMAP
0BE02C
05B02D
00F02C
00E078
01D1E0
02D740
03ED00
07B800
0B1E00
1E0B40
3C07C0
A001F4
ENDCHAR
STARTCHAR L
ENCODING 76
SWIDTH 517 0
DWIDTH 8 0
BBX 9 12 0 0
BITMAP
002F40
00B1C0
01D1C0
03C380
075F40
0B1D00
0E0000
2D0000
380000
740000
EAF800
FA6900
ENDCHAR
STARTCHAR M
ENCODING 77
SWIDTH 931 0
DWIDTH 15 0
BBX 17 12 -2 0
BITMAP
00006C07C0
0001BC1F80
0007783740
000DB4AB00
0028F1CE00
0074E25D00
00A1D72D00
01C2D93C00
0382D83800
0B02E47400
1D02E07800
7401C02E00
ENDCHAR
STARTCHAR N
ENCODING 78
SWIDTH 708 0
DWIDTH 11 0
BBX 13 12 0 0
BITMAP
00680E00
00F80B40
02B80B40
07780B00
0A380E00
1D381C00
283C2800
382C7000
741DA000
701EC000
A00B8000
60034000
ENDCHAR
STARTCHAR O
ENCODING 79
SWIDTH 655 0
DWIDTH 10 0
BBX 10 12 1 0
BITMAP
006F40
02D1D0
0B40E0
1E00E0
3C00E0
7801D0
B002C0
F00780
E00F00
E02D00
B0B400
2F9000
ENDCHAR
STARTCHAR P
ENCODING 80
SWIDTH 553 0
DWIDTH 9 0
BBX 11 12 -1 0
BITMAP
01BF90
079078
01742C
00B038
01E0B4
02D7D0
03F900
074000
0B0000
1D0000
280000
700000
ENDCHAR
STARTCHAR Q
ENCODING 81
SWIDTH 655 0
DWIDTH 10 0
BBX 11 14 1 -2
BITMAP
007F40
03D1C0
0F00D0
2D00E0
3801D0
7402D0
B00780
B00B40
B41D00
387800
06D000
2FE000
007E40
0006F4
ENDCHAR
STARTCHAR R
ENCODING 82
SWIDTH 623 0
DWIDTH 10 0
BBX 11 12 -1 0
BITMAP
01BF90
039038
01742C
00B02C
00E078
01D2E0
02EF40
07AC00
0B4E00
0E0B40
2C03C0
7401F4
ENDCHAR
STARTCHAR S
ENCODING 83
SWIDTH 474 0
DWIDTH 8 0
BBX 9 12 0 0
BITMAP
00BE00
038340
0B0280
0E0780
1E0F40
0F0900
0B8000
03D000
11E000
70A000
B4D000
2E4000
ENDCHAR
STARTCHAR T
ENCODING 84
SWIDTH 471 0
DWIDTH 8 0
BBX 9 12 1 0
BITMAP
6E9080
B0FF80
91E000
02D000
03C000
078000
074000
0B0000
0E0000
2D0000
380000
A00000
ENDCHAR
STARTCHAR U
ENCODING 85
SWIDTH 624 0
DWIDTH 10 0
BBX 11 12 0 0
BITMAP
02D01C
02D038
02C0B4
0780F0
0B42E0
0E03D0
2D0BC0
3C0F80
782B40
B46B00
B18B00
7D07D0
ENDCHAR
STARTCHAR V
ENCODING 86
SWIDTH 587 0
DWIDTH 9 0
BBX 11 12 1 0
BITMAP
6F40B4
12C078
07C074
0B40B0
1F02D0
2D0780
3C1E00
747800
B1E000
B38000
BE0000
380000
ENDCHAR
STARTCHAR W
ENCODING 87
SWIDTH 941 0
DWIDTH 15 0
BBX 15 12 1 0
BITMAP
6E400074
5380007C
0780B03C
0F43D03C
1E0F8038
2D2F4074
78BB00B0
75DE00E0
B24E02C0
E60E0700
AC0E1D00
7407E000
ENDCHAR
STARTCHAR X
ENCODING 88
SWIDTH 552 0
DWIDTH 9 0
BBX 13 12 -1 0
BITMAP
00240B40
00B43D00
00B4E000
00B6C000
007B4000
007D0000
00780000
00BC0000
02ED0000
0B5E0000
2D0F9000
B402D000
ENDCHAR
STARTCHAR Y
ENCODING 89
SWIDTH 580 0
DWIDTH 9 0
BBX 11 16 0 -4
BITMAP
02D02C
02D038
02C0B4
0780F0
0B42D0
0E03C0
2D0B80
3C1F40
742B00
B06E00
B19C00
7D3800
00B000
01D000
074000
290000
ENDCHAR
STARTCHAR Z
ENCODING 90
SWIDTH 501 0
DWIDTH 8 0
BBX 10 12 0 0
BITMAP
0FFFC0
0BE6D0
000BC0
002F40
00BD00
01F400
07D000
0F4000
2D0000
B80000
E6FC00
FFFD00
ENDCHAR
STARTCHAR bracketleft
ENCODING 91
SWIDTH 396 0
DWIDTH 6 0
BBX 8 17 0 -3
BITMAP
002E
0038
0074
00B0
00E0
01D0
02C0
0380
0740
0B00
0E00
1D00
2C00
3800
7400
B000
F800
ENDCHAR
STARTCHAR backslash
ENCODING 92
SWIDTH 464 0
DWIDTH 7 0
BBX 6 17 0 -3
BITMAP
6000
3400
2800
1C00
1C00
0D00
0A00
0700
0700
0340
0280
01C0
01C0
00D0
00A0
0070
0030
ENDCHAR
STARTCHAR bracketright
ENCODING 93
SWIDTH 394 0
DWIDTH 6 0
BBX 9 17 -1 -3
BITMAP
002F40
000740
000B00
000E00
001D00
002800
003400
007000
00A000
00D000
01C000
028000
034000
0B0000
0E0000
1D0000
B80000
ENDCHAR
STARTCHAR asciicircum
ENCODING 94
SWIDTH 540 0
DWIDTH 9 0
BBX 8 7 1 5
BITMAP
0280
03D0
0BE0
0D74
2828
700D
5004
ENDCHAR
STARTCHAR underscore
ENCODING 95
SWIDTH 530 0
DWIDTH 9 0
BBX 11 1 -3 -3
BITMAP
7FFFF8
ENDCHAR
STARTCHAR grave
ENCODING 96
SWIDTH 219 0
DWIDTH 4 0
BBX 3 4 0 8
BITMAP
74
74
28
04
ENDCHAR
STARTCHAR a
ENCODING 97
SWIDTH 541 0
DWIDTH 9 0
BBX 9 9 0 -1
BITMAP
01F740
0B4F40
1D0E00
381D00
743C00
747800
75B900
2E2E00
000400
ENDCHAR
STARTCHAR b
ENCODING 98
SWIDTH 525 0
DWIDTH 8 0
BBX 8 13 0 0
BITMAP
0280
0380
0380
0740
0B00
0EBD
1E4E
2E0E
3C1E
742D
703C
75B0
2F80
ENDCHAR
STARTCHAR c
ENCODING 99
SWIDTH 465 0
DWIDTH 7 0
BBX 8 8 0 0
BITMAP
01F8
0B5D
2D2D
3838
7400
7400
7860
1F90
ENDCHAR
STARTCHAR d
ENCODING 100
SWIDTH 557 0
DWIDTH 9 0
BBX 11 13 0 0
BITMAP
000074
0000B0
0000E0
0001D0
0002C0
01BB80
074B40
1D0F00
2C0E00
382D00
747C00
74EC00
2E5E40
ENDCHAR
STARTCHAR e
ENCODING 101
SWIDTH 471 0
DWIDTH 8 0
BBX 8 8 0 0
BITMAP
01B8
0B5D
1D2D
3C78
7EE0
7900
3824
1FD0
ENDCHAR
STARTCHAR f
ENCODING 102
SWIDTH 393 0
DWIDTH 6 0
BBX 10 15 -1 -2
BITMAP
000B80
002CE0
0075E0
00B2C0
00E000
01D000
0BFE00
078000
074000
074000
0B0000
0E0000
1D0000
3C0000
740000
ENDCHAR
STARTCHAR g
ENCODING 103
SWIDTH 526 0
DWIDTH 8 0
BBX 9 13 0 -5
BITMAP
01F540
0B4B40
1D0F00
3C1E00
782D00
747C00
75F800
2E7400
00B000
00D000
028000
1E0000
140000
ENDCHAR
STARTCHAR h
ENCODING 104
SWIDTH 555 0
DWIDTH 9 0
BBX 9 13 0 0
BITMAP
01D000
01D000
02C000
038000
038000
071E00
0A5B40
0E4F00
1E1E00
2C2D00
743C00
B03800
A02E00
ENDCHAR
STARTCHAR i
ENCODING 105
SWIDTH 286 0
DWIDTH 5 0
BBX 5 12 0 0
BITMAP
03C0
03C0
0100
0000
0F00
0F00
0E00
1C00
3800
7400
B900
7800
ENDCHAR
STARTCHAR j
ENCODING 106
SWIDTH 281 0
DWIDTH 5 0
BBX 8 16 -3 -4
BITMAP
001E
002E
0004
0000
0078
0038
0038
0074
00B0
00E0
01D0
02C0
0340
0B00
2C00
A000
ENDCHAR
STARTCHAR k
ENCODING 107
SWIDTH 497 0
DWIDTH 8 0
BBX 8 13 0 0
BITMAP
01D0
01D0
02C0
0380
0340
070E
0A0F
0D2D
1EE4
2F80
76C0
B1E5
9078
ENDCHAR
STARTCHAR l
ENCODING 108
SWIDTH 279 0
DWIDTH 4 0
BBX 5 13 0 0
BITMAP
01C0
02C0
03C0
0380
0740
0B00
0E00
1D00
2C00
3800
7400
7500
3D00
ENDCHAR
STARTCHAR m
ENCODING 109
SWIDTH 814 0
DWIDTH 13 0
BBX 13 8 0 0
BITMAP
0E1E1B00
0F676740
0E8B8B00
1E0F1E00
2C1D2D00
743C3800
B0743E00
A0702E00
ENDCHAR
STARTCHAR n
ENCODING 110
SWIDTH 561 0
DWIDTH 9 0
BBX 9 8 0 0
BITMAP
0E1E00
0F5740
0E8B40
1E1E00
2C2D00
743C00
B03800
A02E00
ENDCHAR
STARTCHAR o
ENCODING 111
SWIDTH 514 0
DWIDTH 8 0
BBX 8 8 0 0
BITMAP
01F8
0B5D
2D0E
3C1E
782D
7478
74F0
1F80
ENDCHAR
STARTCHAR p
ENCODING 112
SWIDTH 550 0
DWIDTH 9 0
BBX 10 12 -1 -4
BITMAP
075B40
07A2C0
07C2D0
0B42C0
0F0380
0E0B40
1E2D00
2EE400
380000
740000
B00000
D00000
ENDCHAR
STARTCHAR q
ENCODING 113
SWIDTH 533 0
DWIDTH 9 0
BBX 9 12 0 -4
BITMAP
01B940
0B4B80
1D0F00
3C1E00
782D00
747800
74B400
2E7000
00A000
00E000
00D000
009000
ENDCHAR
STARTCHAR r
ENCODING 114
SWIDTH 407 0
DWIDTH 7 0
BBX 7 8 0 0
BITMAP
1E2C
0EAC
0E80
1E00
2D00
3800
B400
A000
ENDCHAR
STARTCHAR s
ENCODING 115
SWIDTH 423 0
DWIDTH 7 0
BBX 7 8 0 0
BITMAP
06E4
1D38
1D24
0F00
0B80
53C0
A2C0
7E00
ENDCHAR
STARTCHAR t
ENCODING 116
SWIDTH 358 0
DWIDTH 6 0
BBX 6 10 1 0
BITMAP
0740
0B00
7F90
2C00
3800
7400
B000
B000
B640
7D00
ENDCHAR
STARTCHAR u
ENCODING 117
SWIDTH 553 0
DWIDTH 9 0
BBX 9 8 0 0
BITMAP
0F0280
0B0740
0E0F00
2D2E00
3C3C00
78A800
B67800
792E00
ENDCHAR
STARTCHAR v
ENCODING 118
SWIDTH 510 0
DWIDTH 8 0
BBX 8 8 0 0
BITMAP
0F0E
0B0F
0E0A
1D0E
381C
7434
75D0
7E40
ENDCHAR
STARTCHAR w
ENCODING 119
SWIDTH 750 0
DWIDTH 12 0
BBX 12 8 0 0
BITMAP
1E011D
0F0B0E
0E1E0E
1D3C0D
2CB81C
35B834
7A39A0
781F40
ENDCHAR
STARTCHAR x
ENCODING 120
SWIDTH 467 0
DWIDTH 7 0
BBX 9 8 -1 0
BITMAP
0282C0
078E00
03A800
03E000
02D000
07D000
1DE000
747D00
ENDCHAR
STARTCHAR y
ENCODING 121
SWIDTH 549 0
DWIDTH 9 0
BBX 9 13 0 -5
BITMAP
0F0280
0B0780
0E0F40
1D1F00
3C3E00
78AD00
B66800
793400
00B000
00D000
028000
1B0000
280000
ENDCHAR
STARTCHAR z
ENCODING 122
SWIDTH 430 0
DWIDTH 7 0
BBX 8 8 0 0
BITMAP
0EAC
067D
00B4
03D0
1F00
3800
BA90
B9A0
ENDCHAR
STARTCHAR braceleft
ENCODING 123
SWIDTH 424 0
DWIDTH 7 0
BBX 8 17 1 -3
BITMAP
002E
0074
00B0
00E0
01D0
02C0
0380
0B40
7D00
3800
2C00
3800
7400
B000
E000
E000
B400
ENDCHAR
STARTCHAR bar
ENCODING 124
SWIDTH 306 0
DWIDTH 5 0
BBX 2 17 2 -3
BITMAP
90
D0
D0
D0
D0
D0
D0
D0
D0
D0
D0
D0
D0
D0
D0
D0
D0
ENDCHAR
STARTCHAR braceright
ENCODING 125
SWIDTH 424 0
DWIDTH 7 0
BBX 8 17 -1 -3
BITMAP
002E
000B
000E
001D
002C
0038
0034
0028
007C
01E0
0380
0740
0B00
0B00
0E00
2D00
B400
ENDCHAR
STARTCHAR asciitilde
ENCODING 126
SWIDTH 624 0
DWIDTH 10 0
BBX 9 3 1 4
BITMAP
1F4080
A2D240
80B900
ENDCHAR
STARTCHAR nonbreakingspace
ENCODING 160
SWIDTH 293 0
DWIDTH 5 0
BBX 1 1 0 0
BITMAP
00
ENDCHAR
STARTCHAR exclamdown
ENCODING 161
SWIDTH 417 0
DWIDTH 7 0
BBX 6 13 0 -4
BITMAP
01F0
01E0
0000
0240
0700
0E00
1D00
2C00
3800
7800
B400
7400
1000
ENDCHAR
STARTCHAR cent
ENCODING 162
SWIDTH 487 0
DWIDTH 8 0
BBX 7 12 1 0
BITMAP
0028
0070
02E0
1E78
3C78
74B0
B000
B000
B4A0
2F80
2800
2400
ENDCHAR
STARTCHAR sterling
ENCODING 163
SWIDTH 665 0
DWIDTH 11 0
BBX 12 12 -1 0
BITMAP
0000BD
0002CA
000B4A
000E1E
002D7C
003C24
02FF80
00B400
00F000
2FE000
73AFF4
3E07E0
ENDCHAR
STARTCHAR currency
ENCODING 164
SWIDTH 572 0
DWIDTH 9 0
BBX 9 10 1 1
BITMAP
060140
0A0740
07ED00
0F2C00
2D2D00
382C00
747800
35E000
6FA000
802000
ENDCHAR
STARTCHAR yen
ENCODING 165
SWIDTH 583 0
DWIDTH 9 0
BBX 11 12 1 0
BITMAP
B400B4
7C02E0
1E0B80
0A1E00
072C00
03B400
02E000
2FF800
038000
7FF000
0B0000
0A0000
ENDCHAR
STARTCHAR brokenbar
ENCODING 166
SWIDTH 292 0
DWIDTH 5 0
BBX 3 17 1 -3
BITMAP
30
74
74
74
74
74
74
70
00
30
74
74
74
74
74
74
70
ENDCHAR
STARTCHAR section
ENCODING 167
SWIDTH 583 0
DWIDTH 9 0
BBX 10 16 0 -3
BITMAP
002F80
00B4D0
01E0E0
01E2D0
00F240
01F400
0B7C00
1D2D00
1D0E00
1E0E00
0F5D00
07E400
12D000
A1D000
F1C000
6E4000
ENDCHAR
STARTCHAR dieresis
ENCODING 168
SWIDTH 412 0
DWIDTH 7 0
BBX 7 3 0 9
BITMAP
3874
7CB4
1010
ENDCHAR
STARTCHAR copyright
ENCODING 169
SWIDTH 871 0
DWIDTH 14 0
BBX 13 12 1 0
BITMAP
006FE000
02902C00
0E1B8A00
2874D700
71E1C340
A2C74340
A2C00700
A2C20A00
A0BD0D00
74003800
1D01E000
06FE4000
ENDCHAR
STARTCHAR ordfeminine
ENCODING 170
SWIDTH 564 0
DWIDTH 9 0
BBX 8 7 1 5
BITMAP
01EA
0B1E
2D2C
3838
74B4
35B4
2E29
ENDCHAR
STARTCHAR guillemotleft
ENCODING 171
SWIDTH 662 0
DWIDTH 11 0
BBX 9 7 1 1
BITMAP
018180
0B0B00
787800
B0B000
383800
0E0E00
010100
ENDCHAR
STARTCHAR logicalnot
ENCODING 172
SWIDTH 729 0
DWIDTH 12 0
BBX 10 5 1 1
BITMAP
BFFFD0
0000D0
0001D0
0001C0
000180
ENDCHAR
STARTCHAR uni00AD
ENCODING 173
SWIDTH 833 0
DWIDTH 13 0
BBX 1 1 0 0
BITMAP
00
ENDCHAR
STARTCHAR registered
ENCODING 174
SWIDTH 742 0
DWIDTH 12 0
BBX 11 10 1 2
BITMAP
01BE40
0741A0
19EE30
349724
60D924
61F434
62A870
7209D0
290780
07F900
ENDCHAR
STARTCHAR macron
ENCODING 175
SWIDTH 392 0
DWIDTH 6 0
BBX 6 1 1 9
BITMAP
BFD0
ENDCHAR
STARTCHAR degree
ENCODING 176
SWIDTH 405 0
DWIDTH 7 0
BBX 5 5 2 7
BITMAP
2F40
A2C0
D2C0
D740
B900
ENDCHAR
STARTCHAR plusminus
ENCODING 177
SWIDTH 617 0
DWIDTH 10 0
BBX 8 10 1 0
BITMAP
0180
0280
0280
BFFE
0280
0280
0280
0140
0000
BFFE
ENDCHAR
STARTCHAR twosuperior
ENCODING 178
SWIDTH 458 0
DWIDTH 7 0
BBX 7 8 1 4
BITMAP
07E0
0D38
1D38
09B4
02D0
1E40
7810
AAD0
ENDCHAR
STARTCHAR threesuperior
ENCODING 179
SWIDTH 430 0
DWIDTH 7 0
BBX 7 9 1 3
BITMAP
06E0
0D34
0D34
04B0
07D0
06C0
61D0
A280
2A00
ENDCHAR
STARTCHAR acute
ENCODING 180
SWIDTH 322 0
DWIDTH 5 0
BBX 4 4 1 9
BITMAP
06
0F
2D
64
ENDCHAR
STARTCHAR mu
ENCODING 181
SWIDTH 618 0
DWIDTH 10 0
BBX 11 12 -1 -4
BITMAP
00A074
01D0B0
03C1E0
0743C0
0F0B80
1E1B40
2FA790
3F82D0
340000
740000
700000
600000
ENDCHAR
STARTCHAR paragraph
ENCODING 182
SWIDTH 739 0
DWIDTH 12 0
BBX 14 14 0 -1
BITMAP
0006BFD0
007FD740
01FF4B00
02FF4E00
03FF1D00
02FE1C00
00BD2C00
002D3800
003C7400
0078A000
18B4D000
78E1C000
72C28000
2E020000
ENDCHAR
STARTCHAR periodcentered
ENCODING 183
SWIDTH 353 0
DWIDTH 6 0
BBX 3 3 2 3
BITMAP
B4
F4
50
ENDCHAR
STARTCHAR cedilla
ENCODING 184
SWIDTH 301 0
DWIDTH 5 0
BBX 3 4 1 -4
BITMAP
24
18
78
B4
ENDCHAR
STARTCHAR onesuperior
ENCODING 185
SWIDTH 403 0
DWIDTH 6 0
BBX 5 9 2 3
BITMAP
0740
2F40
AB00
0E00
1D00
2C00
7400
A000
4000
ENDCHAR
STARTCHAR ordmasculine
ENCODING 186
SWIDTH 498 0
DWIDTH 8 0
BBX 7 7 1 4
BITMAP
02F4
0E2C
2C2C
3838
7474
35E0
1F80
ENDCHAR
STARTCHAR guillemotright
ENCODING 187
SWIDTH 665 0
DWIDTH 11 0
BBX 9 7 1 1
BITMAP
343400
2D2D00
0B4B40
078780
2D2D00
A0A000
404000
ENDCHAR
STARTCHAR onequarter
ENCODING 188
SWIDTH 988 0
DWIDTH 16 0
BBX 14 13 1 0
BITMAP
00002400
0280B000
0BC0D000
7B828000
07474000
0A0A2C00
1D1C3800
283875D0
20B0E2C0
00D0FFD0
02800B40
07400E00
0A001800
ENDCHAR
STARTCHAR onehalf
ENCODING 189
SWIDTH 988 0
DWIDTH 16 0
BBX 14 13 1 0
BITMAP
00002400
0280B000
0BC0D000
7B828000
07474000
0B0A1B90
0D1C38A0
2C3838E0
34B002D0
00D00B80
02802D00
0740F040
0A01FF40
ENDCHAR
STARTCHAR threequarters
ENCODING 190
SWIDTH 1007 0
DWIDTH 16 0
BBX 15 13 0 0
BITMAP
00000340
02F40A00
0A2C1D00
0A383800
01B47100
02D0D280
20E2C340
71D74B28
2A4A0E38
001D1C74
00380FF8
007000D0
00D00240
ENDCHAR
STARTCHAR questiondown
ENCODING 191
SWIDTH 516 0
DWIDTH 8 0
BBX 8 12 0 -3
BITMAP
002D
003D
0000
0030
00B0
02D0
1F40
7D00
B1D0
E1E0
A2D0
2E40
ENDCHAR
STARTCHAR Agrave
ENCODING 192
SWIDTH 615 0
DWIDTH 10 0
BBX 12 16 -1 0
BITMAP
000050
0000E0
0000B4
000014
00006D
0002AC
000A38
001C74
0074B0
00A0E0
02FFF8
0B96D0
0B03C0
1D0380
380380
E002E0
ENDCHAR
STARTCHAR Aacute
ENCODING 193
SWIDTH 615 0
DWIDTH 10 0
BBX 13 16 -1 0
BITMAP
00000100
00000740
00001E00
00001400
00006D00
0002AC00
000A3800
001C7400
0074B000
00A0E000
02FFF800
0B96D000
0B03C000
1D038000
38038000
E002E000
ENDCHAR
STARTCHAR Acircumflex
ENCODING 194
SWIDTH 615 0
DWIDTH 10 0
BBX 12 16 -1 0
BITMAP
000004
00001D
0001AB
000141
00006D
0002AC
000A38
001C74
0074B0
00A0E0
02FFF8
0B96D0
0B03C0
1D0380
380380
E002E0
ENDCHAR
STARTCHAR Atilde
ENCODING 195
SWIDTH 615 0
DWIDTH 10 0
BBX 13 15 -1 0
BITMAP
0001B480
00021E40
00000000
00006D00
0002AC00
000A3800
001C7400
0074B000
00A0E000
02FFF800
0B96D000
0B03C000
1D038000
38038000
E002E000
ENDCHAR
STARTCHAR Adieresis
ENCODING 196
SWIDTH 615 0
DWIDTH 10 0
BBX 13 15 -1 0
BITMAP
0002D380
0002D7C0
00004100
00006D00
0002AC00
000A3800
001C7400
0074B000
00A0E000
02FFF800
0B96D000
0B038000
1D038000
38039000
E002E000
ENDCHAR
STARTCHAR Aring
ENCODING 197
SWIDTH 615 0
DWIDTH 10 0
BBX 13 16 -1 0
BITMAP
00002E00
0000A340
0000D340
0000DB00
0000BD00
0002EC00
000B6800
002C7400
0074B000
00E0E000
07FBF800
0742C000
0A038000
1D038000
78038000
E002E000
ENDCHAR
STARTCHAR AE
ENCODING 198
SWIDTH 878 0
DWIDTH 14 0
BBX 17 12 -1 0
BITMAP
00007EFE00
00029F8340
000A2D0700
001C3C2E00
0074782800
00E0380000
06FBFF8000
0740B80000
0A01F00000
1D01D06000
7801E6E000
E0007E4000
ENDCHAR
STARTCHAR Ccedilla
ENCODING 199
SWIDTH 533 0
DWIDTH 9 0
BBX 9 16 1 -4
BITMAP
007E00
02D280
0B0280
2D0B40
381F00
B40400
F00000
E00000
E00000
E00000
B07400
2F9000
0C0000
0D0000
7C0000
100000
ENDCHAR
STARTCHAR Egrave
ENCODING 200
SWIDTH 509 0
DWIDTH 8 0
BBX 10 16 0 0
BITMAP
000400
002C00
001E00
000100
006F80
02E0D0
0781D0
0F0B80
0E0A00
0E0000
07F000
1F4000
3D0000
780800
786800
1FE000
ENDCHAR
STARTCHAR Eacute
ENCODING 201
SWIDTH 509 0
DWIDTH 8 0
BBX 10 16 0 0
BITMAP
000040
0001D0
0002C0
000500
006F80
02E0D0
0781D0
0F0B80
0E0A00
0E0000
07F000
1F4000
3D0000
780800
786800
1FE000
ENDCHAR
STARTCHAR Ecircumflex
ENCODING 202
SWIDTH 509 0
DWIDTH 8 0
BBX 10 15 0 0
BITMAP
000780
002ED0
005050
006F80
02E0D0
0781D0
0F0B80
0E0A00
0E0000
07F000
1F4000
3D0000
780800
786800
1FE000
ENDCHAR
STARTCHAR Edieresis
ENCODING 203
SWIDTH 509 0
DWIDTH 8 0
BBX 10 15 0 0
BITMAP
0074B0
00B8F0
001000
006F80
02E0D0
0781D0
0F0B80
0E0A00
0E0000
07F000
1F4000
3D0000
780800
786800
1FE000
ENDCHAR
STARTCHAR Igrave
ENCODING 204
SWIDTH 327 0
DWIDTH 5 0
BBX 6 16 0 0
BITMAP
0140
02C0
01D0
0050
0BD0
05E0
01D0
02D0
03C0
0380
0740
0F00
1E00
2C00
7400
D000
ENDCHAR
STARTCHAR Iacute
ENCODING 205
SWIDTH 327 0
DWIDTH 5 0
BBX 8 16 0 0
BITMAP
0004
001D
0038
0050
0BD0
05E0
01D0
02D0
03C0
0380
0740
0F00
1E00
2C00
7400
D000
ENDCHAR
STARTCHAR Icircumflex
ENCODING 206
SWIDTH 327 0
DWIDTH 5 0
BBX 8 15 0 0
BITMAP
0078
06AC
0505
0BD0
05E0
01D0
02D0
03C0
0380
0740
0F00
1E00
2C00
7400
D000
ENDCHAR
STARTCHAR Idieresis
ENCODING 207
SWIDTH 327 0
DWIDTH 5 0
BBX 8 15 0 0
BITMAP
0B4F
0B4F
0104
0BD0
05E0
01D0
02D0
03C0
0380
0740
0F00
1E00
2C00
7400
D000
ENDCHAR
STARTCHAR Eth
ENCODING 208
SWIDTH 630 0
DWIDTH 10 0
BBX 11 12 0 0
BITMAP
0AFE40
1E01D0
0190B0
03C074
0780B4
7FF4B0
1E51E0
2D02D0
3C0B40
781E00
74B400
2F8000
ENDCHAR
STARTCHAR Ntilde
ENCODING 209
SWIDTH 708 0
DWIDTH 11 0
BBX 13 15 0 0
BITMAP
0001E480
00022E00
00000000
00680E00
00F80B40
02B80B40
07780B00
0A380E00
1D381C00
283C2800
382C7000
741DA000
701EC000
A00B8000
60034000
ENDCHAR
STARTCHAR Ograve
ENCODING 210
SWIDTH 655 0
DWIDTH 10 0
BBX 10 16 1 0
BITMAP
000400
001D00
000B00
000140
006F40
02D1D0
0B40E0
1E00E0
3C00E0
7801D0
B002C0
F00780
E00F00
E02D00
B0B400
2F9000
ENDCHAR
STARTCHAR Oacute
ENCODING 211
SWIDTH 655 0
DWIDTH 10 0
BBX 10 16 1 0
BITMAP
000010
0000B0
0001D0
000100
006F40
02D1D0
0B40E0
1E00E0
3C00E0
7801D0
B002C0
F00780
E00F00
E02D00
B0B400
2F9000
ENDCHAR
STARTCHAR Ocircumflex
ENCODING 212
SWIDTH 655 0
DWIDTH 10 0
BBX 10 16 1 0
BITMAP
000040
0002D0
001EE0
001450
006F40
02D1D0
0B40E0
1E00E0
3C00E0
7801D0
B002C0
F00780
E00F00
E02D00
B0B400
2F9000
ENDCHAR
STARTCHAR Otilde
ENCODING 213
SWIDTH 655 0
DWIDTH 10 0
BBX 11 15 1 0
BITMAP
001E48
0022E0
000000
006F40
02D1D0
0B40E0
1E00E0
3C00E0
7801D0
B002C0
F00780
E00F00
E02D00
B0B400
2F9000
ENDCHAR
STARTCHAR Odieresis
ENCODING 214
SWIDTH 655 0
DWIDTH 10 0
BBX 11 15 1 0
BITMAP
003C78
003CB8
001010
006F40
02D1D0
0B40E0
1E00E0
3C00E0
7801D0
B002C0
F00780
E00F00
E02D00
B0B400
2F9000
ENDCHAR
STARTCHAR multiply
ENCODING 215
SWIDTH 573 0
DWIDTH 9 0
BBX 7 6 1 2
BITMAP
741C
1D74
07D0
07D0
1D74
701C
ENDCHAR
STARTCHAR Oslash
ENCODING 216
SWIDTH 655 0
DWIDTH 10 0
BBX 11 15 1 -1
BITMAP
000014
0000B4
002FD0
01E2F0
078774
0F0D74
1E28B0
3C30F0
7891E0
7582C0
B60780
7A0E00
3C7800
3FD000
600000
ENDCHAR
STARTCHAR Ugrave
ENCODING 217
SWIDTH 624 0
DWIDTH 10 0
BBX 11 16 0 0
BITMAP
000400
000E00
000B40
000140
02D01C
02D038
02C0B4
0780F0
0B42E0
0E03D0
2D0BC0
3C0F80
782B40
B46B00
B18B00
7D07D0
ENDCHAR
STARTCHAR Uacute
ENCODING 218
SWIDTH 624 0
DWIDTH 10 0
BBX 11 16 0 0
BITMAP
000010
0000B0
0001D0
000140
02D01C
02D038
02C0B4
0780F0
0B42E0
0E03D0
2D0BC0
3C0F80
782B40
B46B00
B18B00
7D07D0
ENDCHAR
STARTCHAR Ucircumflex
ENCODING 219
SWIDTH 624 0
DWIDTH 10 0
BBX 11 16 0 0
BITMAP
000040
0002D0
001EE0
001410
02D01C
02D038
02C0B4
0780F0
0B42E0
0E03D0
2D0BC0
3C0F80
782B40
B46B00
B18B00
7D07D0
ENDCHAR
STARTCHAR Udieresis
ENCODING 220
SWIDTH 624 0
DWIDTH 10 0
BBX 11 15 0 0
BITMAP
002C78
003C78
001010
02D01C
02D038
02C0B4
0780F0
0B42E0
0E03D0
2D0BC0
3C0F80
782B40
B46B00
B18B00
7D07D0
ENDCHAR
STARTCHAR Yacute
ENCODING 221
SWIDTH 580 0
DWIDTH 9 0
BBX 11 20 0 -4
BITMAP
000060
0000E0
000280
000000
02D02C
02D038
02C0B4
0780F0
0B42D0
0E03C0
2D0B80
3C1F40
742B00
B06E00
B19C00
7D3800
00B000
01D000
074000
290000
ENDCHAR
STARTCHAR Thorn
ENCODING 222
SWIDTH 527 0
DWIDTH 8 0
BBX 10 12 -1 0
BITMAP
0BE000
05B000
00F000
01FE40
01D1D0
02C0E0
0381D0
074B80
0FF900
1D0000
380000
A00000
ENDCHAR
STARTCHAR germandbls
ENCODING 223
SWIDTH 520 0
DWIDTH 8 0
BBX 10 15 -1 -2
BITMAP
001B80
0074D0
00E0E0
01D1D0
02C380
038A00
075C00
0B2C00
0E1D00
0E0F40
1D4780
2CE280
38BE00
740000
A00000
ENDCHAR
STARTCHAR agrave
ENCODING 224
SWIDTH 541 0
DWIDTH 9 0
BBX 9 13 0 -1
BITMAP
007400
007400
002400
000400
01F740
0B4F40
1D0E00
381D00
743C00
747800
75B900
2E2E00
000400
ENDCHAR
STARTCHAR aacute
ENCODING 225
SWIDTH 541 0
DWIDTH 9 0
BBX 9 14 0 -1
BITMAP
000900
000E00
002D00
006000
000000
01F740
0B4F40
1D0E00
381D00
743C00
747800
75B900
2E2E00
000400
ENDCHAR
STARTCHAR acircumflex
ENCODING 226
SWIDTH 541 0
DWIDTH 9 0
BBX 9 13 0 -1
BITMAP
001F00
007B00
028340
000000
01F740
0B4F40
1D0E00
381D00
743C00
747800
75B900
2E2E00
000400
ENDCHAR
STARTCHAR atilde
ENCODING 227
SWIDTH 541 0
DWIDTH 9 0
BBX 9 13 0 -1
BITMAP
00B880
021E40
000000
000000
01F740
0B4F40
1D0E00
381D00
743C00
747800
75B900
2E2E00
000400
ENDCHAR
STARTCHAR adieresis
ENCODING 228
SWIDTH 541 0
DWIDTH 9 0
BBX 9 13 0 -1
BITMAP
02D3C0
02D3C0
004100
000000
01F740
0B4F40
1D0E00
381D00
743C00
747800
75B900
2E2E00
000400
ENDCHAR
STARTCHAR aring
ENCODING 229
SWIDTH 541 0
DWIDTH 9 0
BBX 9 13 0 -1
BITMAP
006E00
00E740
00BD00
000000
01F740
0B4F40
1D0E00
381D00
743C00
747800
75B900
2E2E00
000400
ENDCHAR
STARTCHAR ae
ENCODING 230
SWIDTH 769 0
DWIDTH 12 0
BBX 12 8 0 0
BITMAP
01F7BD
0B4F8B
1D0F0F
381D7D
743FE4
747C00
759D1C
2E0BE4
ENDCHAR
STARTCHAR ccedilla
ENCODING 231
SWIDTH 465 0
DWIDTH 7 0
BBX 8 12 0 -4
BITMAP
01F8
0B5D
2D2D
3838
7400
7400
7860
2F90
0600
0A00
2D00
1400
ENDCHAR
STARTCHAR egrave
ENCODING 232
SWIDTH 471 0
DWIDTH 8 0
BBX 8 12 0 0
BITMAP
00A0
00E0
0070
0010
01B8
0B5D
1D2D
3C78
7EE0
7900
3824
1FD0
ENDCHAR
STARTCHAR eacute
ENCODING 233
SWIDTH 471 0
DWIDTH 8 0
BBX 8 13 0 0
BITMAP
0018
002C
0078
0090
0000
01B8
0B5D
1D2D
3C78
7EE0
7900
3824
1FD0
ENDCHAR
STARTCHAR ecircumflex
ENCODING 234
SWIDTH 471 0
DWIDTH 8 0
BBX 8 13 0 0
BITMAP
0004
002D
01AD
074A
0000
01B8
0B5D
1D2D
3C78
7EE0
7900
3824
1FD0
ENDCHAR
STARTCHAR edieresis
ENCODING 235
SWIDTH 471 0
DWIDTH 8 0
BBX 9 12 0 0
BITMAP
078B40
078B40
010100
000000
01B800
0B5D00
1D2C00
3CB800
7F9000
740000
386400
1F9000
ENDCHAR
STARTCHAR igrave
ENCODING 236
SWIDTH 286 0
DWIDTH 5 0
BBX 5 12 0 0
BITMAP
0700
0B00
0340
0000
0F00
0F00
0E00
1C00
3800
7400
B900
7800
ENDCHAR
STARTCHAR iacute
ENCODING 237
SWIDTH 286 0
DWIDTH 5 0
BBX 6 13 0 0
BITMAP
0090
01D0
0380
0A00
0000
0F00
0F00
0E00
1C00
3800
7400
B900
7800
ENDCHAR
STARTCHAR icircumflex
ENCODING 238
SWIDTH 286 0
DWIDTH 5 0
BBX 7 13 0 0
BITMAP
0040
01E0
0BB0
3874
0000
0F00
0F00
0E00
1C00
3800
7400
B900
7800
ENDCHAR
STARTCHAR idieresis
ENCODING 239
SWIDTH 286 0
DWIDTH 5 0
BBX 7 12 0 0
BITMAP
2C78
3C78
0010
0000
0F00
0F00
0E00
1C00
3800
7400
B900
7800
ENDCHAR
STARTCHAR eth
ENCODING 240
SWIDTH 524 0
DWIDTH 8 0
BBX 10 13 0 0
BITMAP
000900
000750
001BA0
002740
000340
01FB40
0B4F40
1D0F00
3C1E00
782C00
747800
74E000
2F4000
ENDCHAR
STARTCHAR ntilde
ENCODING 241
SWIDTH 561 0
DWIDTH 9 0
BBX 9 12 0 0
BITMAP
00B880
021E40
000000
000000
0E1E00
0F5740
0E8B40
1E1E00
2C2D00
743C00
B03800
A02E00
ENDCHAR
STARTCHAR ograve
ENCODING 242
SWIDTH 514 0
DWIDTH 8 0
BBX 8 12 0 0
BITMAP
0034
0074
0028
0004
01F8
0B5D
2D0E
3C1E
782D
7478
74F0
1F80
ENDCHAR
STARTCHAR oacute
ENCODING 243
SWIDTH 514 0
DWIDTH 8 0
BBX 8 13 0 0
BITMAP
0006
000F
002D
0064
0000
01F8
0B5D
2D0E
3C1E
782D
7478
74F0
1F80
ENDCHAR
STARTCHAR ocircumflex
ENCODING 244
SWIDTH 514 0
DWIDTH 8 0
BBX 9 13 0 0
BITMAP
000100
000B00
007B40
029280
000000
01F800
0B5D00
2D0E00
3C1E00
782D00
747800
74F000
1F8000
ENDCHAR
STARTCHAR otilde
ENCODING 245
SWIDTH 514 0
DWIDTH 8 0
BBX 10 12 0 0
BITMAP
00B890
025B40
000000
000000
01F800
0B5D00
2D0E00
3C1E00
782D00
747800
74F000
1F8000
ENDCHAR
STARTCHAR odieresis
ENCODING 246
SWIDTH 514 0
DWIDTH 8 0
BBX 9 12 0 0
BITMAP
01E2C0
02E3C0
004000
000000
01F800
0B5D00
2D0E00
3C1E00
782D00
747800
74F000
1F8000
ENDCHAR
STARTCHAR divide
ENCODING 247
SWIDTH 617 0
DWIDTH 10 0
BBX 8 9 1 1
BITMAP
0040
02D0
0180
0000
6AAA
0000
0140
03C0
0180
ENDCHAR
STARTCHAR oslash
ENCODING 248
SWIDTH 514 0
DWIDTH 8 0
BBX 8 12 0 -2
BITMAP
0001
000B
01FD
0B6D
1D5E
3C9E
756D
7638
7DB0
2F80
3400
1000
ENDCHAR
STARTCHAR ugrave
ENCODING 249
SWIDTH 553 0
DWIDTH 9 0
BBX 9 12 0 0
BITMAP
002800
003800
001C00
000400
0F0280
0B0740
0E0F00
2D2D00
387C00
75A800
BB3D00
782E00
ENDCHAR
STARTCHAR uacute
ENCODING 250
SWIDTH 553 0
DWIDTH 9 0
BBX 9 13 0 0
BITMAP
000200
000B40
001E00
002400
000000
0F0280
0B0740
0E0F00
2D2E00
3C3C00
78A800
B67800
792E00
ENDCHAR
STARTCHAR ucircumflex
ENCODING 251
SWIDTH 553 0
DWIDTH 9 0
BBX 9 13 0 0
BITMAP
000100
000B40
002B80
01D1C0
000000
0F0280
0B0740
0E0F00
2D2E00
3C3C00
78A800
B67800
792E00
ENDCHAR
STARTCHAR udieresis
ENCODING 252
SWIDTH 553 0
DWIDTH 9 0
BBX 10 12 0 0
BITMAP
00E1D0
01F2D0
004040
000000
0F0280
0B0740
0E0F00
2D2E00
3C3C00
78A800
B67800
792E00
ENDCHAR
STARTCHAR yacute
ENCODING 253
SWIDTH 549 0
DWIDTH 9 0
BBX 9 18 0 -5
BITMAP
000500
000F00
002D00
006400
000000
0F0280
0B0780
0E0F40
1D1F00
3C3E00
78AD00
B66800
793400
00B000
00D000
028000
1B0000
280000
ENDCHAR
STARTCHAR thorn
ENCODING 254
SWIDTH 552 0
DWIDTH 9 0
BBX 11 18 -2 -4
BITMAP
000400
001D00
001D00
002C00
003800
007400
00B6E0
00F8B0
01F0B4
02D0B0
03C0E0
0782D0
0B8B40
0FB900
1E0000
2C0000
380000
740000
ENDCHAR
STARTCHAR ydieresis
ENCODING 255
SWIDTH 549 0
DWIDTH 9 0
BBX 9 17 0 -5
BITMAP
01D2C0
02D3C0
004100
000000
0F0280
0B0780
0E0F40
1D1F00
3C3E00
78AD00
B66800
793400
00B000
00D000
028000
1B0000
280000
ENDCHAR
STARTCHAR Amacron
ENCODING 256
SWIDTH 615 0
DWIDTH 10 0
BBX 13 14 -1 0
BITMAP
0002FF40
00000000
00006D00
0002AC00
000A3800
001C7400
0074B000
00A0E000
02FFF800
0B96D000
0B03C000
1D038000
38038000
E002E000
ENDCHAR
STARTCHAR amacron
ENCODING 257
SWIDTH 543 0
DWIDTH 9 0
BBX 9 11 0 -1
BITMAP
01FF40
000000
01F740
0B4F40
1D0E00
381D00
783C00
747800
75B900
2E2F00
000400
ENDCHAR
STARTCHAR Abreve
ENCODING 258
SWIDTH 615 0
DWIDTH 10 0
BBX 13 16 -1 0
BITMAP
00004040
0000E180
00007D00
00000000
00006D00
0002AC00
000A3800
001C7400
0074B000
00A0E000
02FFF800
0B96D000
0B038000
1D038000
38039000
E002E000
ENDCHAR
STARTCHAR abreve
ENCODING 259
SWIDTH 543 0
DWIDTH 9 0
BBX 9 13 0 -1
BITMAP
009080
00E240
007D00
000000
01F740
0B4F40
1D0E00
381D00
783C00
747800
75B900
2E2F00
000400
ENDCHAR
STARTCHAR Aogonek
ENCODING 260
SWIDTH 615 0
DWIDTH 10 0
BBX 12 16 -1 -4
BITMAP
00006D
0002AC
000A38
001C74
0074B0
00A0E0
02FFF8
0796D0
0B0380
1D0380
380390
E002E0
000280
000A00
000D00
000B40
ENDCHAR
STARTCHAR aogonek
ENCODING 261
SWIDTH 541 0
DWIDTH 9 0
BBX 9 12 0 -4
BITMAP
01F740
0B4F40
1D0E00
381D00
743C00
747800
75B900
2E2E00
002800
007000
00E000
00B800
ENDCHAR
STARTCHAR Cacute
ENCODING 262
SWIDTH 533 0
DWIDTH 9 0
BBX 11 16 0 0
BITMAP
000010
000038
0000B4
000040
001F80
00B4A0
03C0E0
0B42D0
1E0B80
2D0100
3C0000
380000
780000
380000
2C1D00
0BE400
ENDCHAR
STARTCHAR cacute
ENCODING 263
SWIDTH 468 0
DWIDTH 8 0
BBX 9 13 0 0
BITMAP
000240
000780
000B00
002800
000000
01F800
0B4D00
2D2D00
3C3800
740000
740000
786000
1F9000
ENDCHAR
STARTCHAR Ccircumflex
ENCODING 264
SWIDTH 533 0
DWIDTH 9 0
BBX 11 15 0 0
BITMAP
0000B0
0007B8
000414
001F80
00B4A0
03C0E0
0B42D0
1E0B80
2D0100
3C0000
380000
780000
380000
2C1D00
0BE400
ENDCHAR
STARTCHAR ccircumflex
ENCODING 265
SWIDTH 468 0
DWIDTH 8 0
BBX 9 12 0 0
BITMAP
001F00
007B00
028340
000000
01F800
0B4D00
2D2D00
3C3800
740000
740000
786000
1F9000
ENDCHAR
STARTCHAR Cdotaccent
ENCODING 266
SWIDTH 533 0
DWIDTH 9 0
BBX 10 16 0 0
BITMAP
000140
0003C0
000280
000000
001F80
00B4A0
03C0E0
0B42D0
1E0B80
2D0100
3C0000
380000
780000
380000
2C1D00
0BE400
ENDCHAR
STARTCHAR cdotaccent
ENCODING 267
SWIDTH 468 0
DWIDTH 8 0
BBX 8 12 0 0
BITMAP
002D
003D
0004
0000
01F8
0B4D
2D2D
3C38
7400
7400
7860
1F90
ENDCHAR
STARTCHAR Ccaron
ENCODING 268
SWIDTH 533 0
DWIDTH 9 0
BBX 12 16 0 0
BITMAP
000504
000B5D
0003E4
000000
001F80
00B4A0
03C0E0
0B42D0
1E0B80
2D0100
3C0000
380000
780000
380000
2C1D00
0BE400
ENDCHAR
STARTCHAR ccaron
ENCODING 269
SWIDTH 468 0
DWIDTH 8 0
BBX 10 12 0 0
BITMAP
00A050
0076C0
003D00
000000
01F800
0B4D00
2D2D00
3C3800
740000
740000
786000
1F9000
ENDCHAR
STARTCHAR Dcaron
ENCODING 270
SWIDTH 630 0
DWIDTH 10 0
BBX 11 16 0 0
BITMAP
001404
001E74
000B90
000000
0AFE40
1E01E0
0190B0
03C074
078074
0F00B0
1E00E0
2D02D0
3C0780
381E00
74B800
2F9000
ENDCHAR
STARTCHAR dcaron
ENCODING 271
SWIDTH 557 0
DWIDTH 9 0
BBX 13 13 0 0
BITMAP
000076C0
0000B2C0
0000E280
0001D600
0002C000
01BB8000
074B4000
1D0F0000
2C0E0000
382D0000
747C0000
74EC0000
2E5E4000
ENDCHAR
STARTCHAR Dcroat
ENCODING 272
SWIDTH 630 0
DWIDTH 10 0
BBX 11 12 0 0
BITMAP
0AFE40
1E01D0
0190B0
03C074
0B80B4
7FF4B0
2F51E0
2D02D0
380B40
781E00
74B400
2F8000
ENDCHAR
STARTCHAR dcroat
ENCODING 273
SWIDTH 557 0
DWIDTH 9 0
BBX 11 13 0 0
BITMAP
000074
0000B0
002FF8
0002D0
0002C0
01BB80
074B40
1D0F00
2C0E00
382D00
747C00
74EC00
2E5E40
ENDCHAR
STARTCHAR Emacron
ENCODING 274
SWIDTH 509 0
DWIDTH 8 0
BBX 10 14 0 0
BITMAP
007FE0
000000
006F80
02E0D0
0781D0
0F0B80
0E0A00
0E0000
07F000
1F4000
3D0000
780800
786800
1FE000
ENDCHAR
STARTCHAR emacron
ENCODING 275
SWIDTH 471 0
DWIDTH 8 0
BBX 8 10 0 0
BITMAP
07FE
0000
01B8
0B5D
1D2D
3C78
7EE0
7900
3824
1FD0
ENDCHAR
STARTCHAR Ebreve
ENCODING 276
SWIDTH 509 0
DWIDTH 8 0
BBX 10 16 0 0
BITMAP
001410
002860
001F80
000000
006F80
02E0D0
0781D0
0F0B80
0E0A00
0E0000
07F000
1F4000
3D0000
780800
786800
1FE000
ENDCHAR
STARTCHAR ebreve
ENCODING 277
SWIDTH 471 0
DWIDTH 8 0
BBX 9 12 0 0
BITMAP
018140
02C600
00B800
000000
01B800
0B5D00
1D2D00
3C7800
7EE000
790000
382400
1FD000
ENDCHAR
STARTCHAR Edotaccent
ENCODING 278
SWIDTH 509 0
DWIDTH 8 0
BBX 10 16 0 0
BITMAP
000500
001F00
000900
000000
006F80
02E0D0
0781D0
0F0B80
0E0A00
0E0000
07F000
1F4000
3D0000
780800
786800
1FE000
ENDCHAR
STARTCHAR edotaccent
ENCODING 279
SWIDTH 471 0
DWIDTH 8 0
BBX 8 12 0 0
BITMAP
0078
00B8
0010
0000
01B8
0B5D
1D2D
3C78
7EE0
7900
3824
1FD0
ENDCHAR
STARTCHAR Eogonek
ENCODING 280
SWIDTH 509 0
DWIDTH 8 0
BBX 10 16 0 -4
BITMAP
006F80
02E0D0
0781D0
0F0B80
0E0A00
0E0000
07F000
1F4000
3D0000
780800
786C00
1FE000
034000
0E0000
1D0000
0E4000
ENDCHAR
STARTCHAR eogonek
ENCODING 281
SWIDTH 471 0
DWIDTH 8 0
BBX 8 12 0 -4
BITMAP
01B8
0B5D
1D2D
3C78
7EE0
7800
3824
1FE0
0280
0A00
0E00
0B40
ENDCHAR
STARTCHAR Ecaron
ENCODING 282
SWIDTH 509 0
DWIDTH 8 0
BBX 10 16 0 0
BITMAP
001410
002DB0
001F80
000400
006F80
02E0D0
0781D0
0F0B80
0E0A00
0E0000
07F000
1F4000
3D0000
780800
786800
1FE000
ENDCHAR
STARTCHAR ecaron
ENCODING 283
SWIDTH 471 0
DWIDTH 8 0
BBX 9 12 0 0
BITMAP
018180
00E740
00B800
000000
01B800
0B5D00
1D2D00
3C7800
7EE000
790000
382400
1FD000
ENDCHAR
STARTCHAR Gcircumflex
ENCODING 284
SWIDTH 598 0
DWIDTH 10 0
BBX 10 15 1 0
BITMAP
0003C0
002ED0
001050
007E00
02D280
0B4280
2D0B80
381F00
B40800
F01000
E0BF40
E03E00
E03400
B0A000
2F8000
ENDCHAR
STARTCHAR gcircumflex
ENCODING 285
SWIDTH 526 0
DWIDTH 8 0
BBX 9 18 0 -5
BITMAP
000100
000F00
007B40
029280
000000
01F540
0B4B40
1D0F00
3C1E00
782D00
747C00
75F800
2E7400
00B000
00D000
028000
1E0000
140000
ENDCHAR
STARTCHAR Gbreve
ENCODING 286
SWIDTH 598 0
DWIDTH 10 0
BBX 10 16 1 0
BITMAP
000410
002C60
001B80
000000
007E00
02D280
0B4280
2D0B80
381F00
B40800
F01000
E0BF40
E03E00
E03400
B0A000
2F8000
ENDCHAR
STARTCHAR gbreve
ENCODING 287
SWIDTH 526 0
DWIDTH 8 0
BBX 9 17 0 -5
BITMAP
009080
00E280
007D00
000000
01F540
0B4B40
1D0F00
3C1E00
782D00
747C00
75F800
2E7400
00B000
00D000
028000
1E0000
140000
ENDCHAR
STARTCHAR Gdotaccent
ENCODING 288
SWIDTH 598 0
DWIDTH 10 0
BBX 9 16 1 0
BITMAP
000500
001F00
000A00
000000
007E00
02D280
0B4280
2D0B80
381F00
B40800
F01000
E0BF40
E03E00
E03400
B0A000
2F8000
ENDCHAR
STARTCHAR gdotaccent
ENCODING 289
SWIDTH 526 0
DWIDTH 8 0
BBX 9 17 0 -5
BITMAP
002D00
002D00
000400
000000
01F540
0B4B40
1D0F00
3C1E00
782D00
747C00
75F800
2E7400
00B000
00D000
028000
1E0000
140000
ENDCHAR
STARTCHAR Gcommaaccent
ENCODING 290
SWIDTH 598 0
DWIDTH 10 0
BBX 9 16 1 -4
BITMAP
007E00
02D280
0B4280
2D0B80
381F00
B40800
F01000
E0BF40
E03E00
E03400
B0A000
2F8000
100000
380000
340000
A00000
ENDCHAR
STARTCHAR gcommaaccent
ENCODING 291
SWIDTH 526 0
DWIDTH 8 0
BBX 9 17 0 -5
BITMAP
000900
002C00
001800
000000
01F540
0B4B40
1D0F00
3C1E00
782D00
747C00
75F800
2E7400
00B000
00D000
028000
1E0000
140000
ENDCHAR
STARTCHAR Hcircumflex
ENCODING 292
SWIDTH 668 0
DWIDTH 11 0
BBX 12 16 -1 0
BITMAP
000010
0000B0
0007B8
000414
07F007
01740B
00B00F
00F01E
00E02C
02FBFE
07C07D
0780B4
0B00E0
0E01D0
2C01D0
6001E4
ENDCHAR
STARTCHAR hcircumflex
ENCODING 293
SWIDTH 555 0
DWIDTH 9 0
BBX 9 16 0 0
BITMAP
001000
00B400
02B800
1D1C00
01C000
02C000
03C000
038000
075E00
0A5B40
0E8F00
1E1E00
3C2D00
743C00
B03800
A02E00
ENDCHAR
STARTCHAR Hbar
ENCODING 294
SWIDTH 668 0
DWIDTH 11 0
BBX 13 12 -1 0
BITMAP
07E00700
01740B40
00B40B00
0BFFFF80
00E01C00
02FBFD00
07C07400
0380B000
0B00E000
0E01D000
2C01D000
6001E400
ENDCHAR
STARTCHAR hbar
ENCODING 295
SWIDTH 555 0
DWIDTH 9 0
BBX 9 13 0 0
BITMAP
00D000
01D000
0BFD00
038000
038000
071E00
0A5B40
0E4F00
1E1E00
2C2D00
743C00
B03800
A02E00
ENDCHAR
STARTCHAR Itilde
ENCODING 296
SWIDTH 327 0
DWIDTH 5 0
BBX 8 15 0 0
BITMAP
02D2
0879
0000
0BD0
05E0
01D0
02D0
03C0
0380
0740
0F00
1E00
2C00
7400
D000
ENDCHAR
STARTCHAR itilde
ENCODING 297
SWIDTH 286 0
DWIDTH 5 0
BBX 7 12 0 0
BITMAP
1B48
21E4
0000
0000
0F00
0F00
0E00
1C00
3800
7400
B900
7800
ENDCHAR
STARTCHAR Imacron
ENCODING 298
SWIDTH 327 0
DWIDTH 5 0
BBX 8 14 0 0
BITMAP
0BFD
0000
0BD0
05E0
01D0
02D0
03C0
0380
0740
0F00
1E00
2C00
7400
D000
ENDCHAR
STARTCHAR imacron
ENCODING 299
SWIDTH 286 0
DWIDTH 5 0
BBX 6 10 0 0
BITMAP
2FF0
0000
0F00
0F00
0E00
1C00
3800
7400
B900
7800
ENDCHAR
STARTCHAR Ibreve
ENCODING 300
SWIDTH 327 0
DWIDTH 5 0
BBX 8 16 0 0
BITMAP
0101
0386
01F4
0000
0BD0
05E0
01D0
02D0
03C0
0380
0740
0F00
1E00
2C00
7400
D000
ENDCHAR
STARTCHAR ibreve
ENCODING 301
SWIDTH 286 0
DWIDTH 5 0
BBX 7 12 0 0
BITMAP
0C08
1D24
0B90
0000
0F00
0F00
0E00
1C00
3800
7400
B900
7800
ENDCHAR
STARTCHAR Iogonek
ENCODING 302
SWIDTH 327 0
DWIDTH 5 0
BBX 8 16 -2 -4
BITMAP
00BD
005E
001D
002D
002C
0038
0074
00B0
00E0
02D0
0780
0E00
2800
A000
D000
F400
ENDCHAR
STARTCHAR iogonek
ENCODING 303
SWIDTH 297 0
DWIDTH 5 0
BBX 7 16 -1 -4
BITMAP
00B4
00F0
0000
0000
03C0
02C0
0380
0740
0B00
0E00
1D00
1F40
0A00
2800
7400
7900
ENDCHAR
STARTCHAR Idotaccent
ENCODING 304
SWIDTH 327 0
DWIDTH 5 0
BBX 6 16 0 0
BITMAP
0050
02E0
0190
0000
0BD0
05E0
01D0
02D0
03C0
0380
0740
0F00
1E00
2C00
7400
D000
ENDCHAR
STARTCHAR dotlessi
ENCODING 305
SWIDTH 286 0
DWIDTH 5 0
BBX 4 8 0 0
BITMAP
0F
0F
0E
1C
38
74
B9
78
ENDCHAR
STARTCHAR IJ
ENCODING 306
SWIDTH 720 0
DWIDTH 12 0
BBX 12 16 0 -4
BITMAP
0BD1BE
05EB8F
01D50F
02D01E
03C02D
03803C
074078
0F00B4
1E00F0
2C02D0
7403C0
D00B40
001E00
003C00
00B000
078000
ENDCHAR
STARTCHAR ij
ENCODING 307
SWIDTH 567 0
DWIDTH 9 0
BBX 9 16 0 -4
BITMAP
03C2C0
03C3C0
010000
000000
0F0B40
0F0740
0E0B40
1C0B00
380E00
741D00
B92C00
783800
00B000
00D000
028000
0E0000
ENDCHAR
STARTCHAR Jcircumflex
ENCODING 308
SWIDTH 393 0
DWIDTH 6 0
BBX 12 20 -3 -4
BITMAP
000024
0001F8
000A5D
000000
002FD0
00F4E0
0051E0
0002D0
0002C0
000380
000740
000F00
001E00
002D00
007800
00B000
01D000
078000
1E0000
740000
ENDCHAR
STARTCHAR jcircumflex
ENCODING 309
SWIDTH 282 0
DWIDTH 5 0
BBX 9 17 -3 -4
BITMAP
000100
000B40
006B80
01D280
000000
007800
003C00
003800
007400
00B000
00E000
01D000
02C000
038000
0B0000
1D0000
600000
ENDCHAR
STARTCHAR Kcommaaccent
ENCODING 310
SWIDTH 616 0
DWIDTH 10 0
BBX 12 16 -1 -4
BITMAP
0BE02C
05B02D
00F02C
00E078
01D1E0
02D740
03ED00
07B800
0B1E00
1E0B40
3C07C0
A001F4
004000
02C000
02C000
060000
ENDCHAR
STARTCHAR kcommaaccent
ENCODING 311
SWIDTH 497 0
DWIDTH 8 0
BBX 8 17 0 -4
BITMAP
01D0
01D0
02C0
0380
0340
070E
0A0F
0D2D
1EE4
2F80
76C0
B1E5
9078
0400
1D00
1C00
2400
ENDCHAR
STARTCHAR kgreenlandic
ENCODING 312
SWIDTH 497 0
DWIDTH 8 0
BBX 8 8 0 0
BITMAP
0E0E
0F0B
0E2E
1DB4
2F80
7AC0
B5E0
A07D
ENDCHAR
STARTCHAR Lacute
ENCODING 313
SWIDTH 517 0
DWIDTH 8 0
BBX 10 16 0 0
BITMAP
000040
0000E0
0002D0
000100
002F40
00B1C0
01D1C0
03C380
075F40
0B1D00
0E0000
2D0000
380000
740000
EAF800
FA6900
ENDCHAR
STARTCHAR lacute
ENCODING 314
SWIDTH 279 0
DWIDTH 4 0
BBX 7 16 0 0
BITMAP
0004
002C
0078
0050
0280
02C0
0380
0740
0B00
0E00
1D00
2C00
3800
7400
7400
7900
ENDCHAR
STARTCHAR Lcommaaccent
ENCODING 315
SWIDTH 517 0
DWIDTH 8 0
BBX 9 16 0 -4
BITMAP
002F40
00B1C0
01D1C0
03C380
075F40
0B1D00
0E0000
2D0000
380000
740000
EAF800
FA6900
040000
3C0000
280000
600000
ENDCHAR
STARTCHAR lcommaaccent
ENCODING 316
SWIDTH 279 0
DWIDTH 4 0
BBX 5 17 0 -4
BITMAP
01C0
02C0
03C0
0380
0740
0B00
0E00
1D00
2C00
3800
7400
7500
3D00
1000
7400
7000
9000
ENDCHAR
STARTCHAR Lcaron
ENCODING 317
SWIDTH 517 0
DWIDTH 8 0
BBX 12 15 0 0
BITMAP
00000B
00000B
00000A
002F58
00B1C0
01D1C0
03C380
075F40
0B1D00
0E0000
2D0000
380000
740000
EAF800
FA6900
ENDCHAR
STARTCHAR lcaron
ENCODING 318
SWIDTH 467 0
DWIDTH 7 0
BBX 9 13 0 0
BITMAP
01C280
02C380
03C340
038A00
074000
0B0000
0E0000
1D0000
2C0000
380000
740000
750000
3D0000
ENDCHAR
STARTCHAR Ldot
ENCODING 319
SWIDTH 668 0
DWIDTH 11 0
BBX 11 12 0 0
BITMAP
002F40
00B1C0
01D1C0
03C380
075F40
0B1D00
0E007C
2D0078
380000
740000
EAF800
FA6900
ENDCHAR
STARTCHAR ldot
ENCODING 320
SWIDTH 489 0
DWIDTH 8 0
BBX 8 13 0 0
BITMAP
01C0
02C0
03C0
0380
0740
0B00
0E14
1D2E
2C1D
3800
7400
7500
3D00
ENDCHAR
STARTCHAR Lslash
ENCODING 321
SWIDTH 517 0
DWIDTH 8 0
BBX 9 12 0 0
BITMAP
002F40
00B580
01D1C0
03C2C0
078B40
0B6F00
1F1800
BFD000
7C0000
740000
E6B800
FA6900
ENDCHAR
STARTCHAR lslash
ENCODING 322
SWIDTH 279 0
DWIDTH 4 0
BBX 7 13 0 0
BITMAP
0600
07F8
02C0
0380
0740
0B00
0E00
1D00
2C00
3800
7400
7400
3D00
ENDCHAR
STARTCHAR Nacute
ENCODING 323
SWIDTH 708 0
DWIDTH 11 0
BBX 13 16 0 0
BITMAP
00000100
00000B00
00001D00
00001000
00680E00
00F80B40
02B80B40
07780B00
0A380E00
1D381C00
283C2800
382C7000
741DA000
701EC000
A00B8000
60034000
ENDCHAR
STARTCHAR nacute
ENCODING 324
SWIDTH 561 0
DWIDTH 9 0
BBX 9 13 0 0
BITMAP
000200
000740
000E00
002400
000000
0E1E00
0F5740
0E8B40
1E1E00
2C2D00
743C00
B03800
A02E00
ENDCHAR
STARTCHAR Ncommaaccent
ENCODING 325
SWIDTH 708 0
DWIDTH 11 0
BBX 13 16 0 -4
BITMAP
00680E00
00F80B40
02B80B40
07780B00
0A380E00
1D381C00
283C2800
382C7000
741DA000
701EC000
A00B8000
60034000
00400000
00E00000
00E00000
01800000
ENDCHAR
STARTCHAR ncommaaccent
ENCODING 326
SWIDTH 561 0
DWIDTH 9 0
BBX 9 12 0 -4
BITMAP
0E1E00
0F5740
0E8B40
1E1E00
2C2D00
743C00
B03800
A02E00
040000
1E0000
0D0000
240000
ENDCHAR
STARTCHAR Ncaron
ENCODING 327
SWIDTH 708 0
DWIDTH 11 0
BBX 13 16 0 0
BITMAP
00014040
0001E740
0000B900
00000000
00680E00
00F80B40
02B80B40
07780B00
0A380E00
1D381C00
283C2800
382C7000
741DA000
701EC000
A00B8000
60034000
ENDCHAR
STARTCHAR ncaron
ENCODING 328
SWIDTH 561 0
DWIDTH 9 0
BBX 10 12 0 0
BITMAP
00A060
0076C0
003D00
000000
0E1E00
0F5740
0E8B40
1E1E00
2C2D00
743C00
B03800
A02E00
ENDCHAR
STARTCHAR Eng
ENCODING 330
SWIDTH 698 0
DWIDTH 11 0
BBX 13 16 0 -4
BITMAP
00781E00
01F80B40
02B40B00
07740B00
0D740E00
1C781D00
28381C00
343C2800
702D7000
B01EA000
A00FC000
90074000
000E0000
00280000
00A00000
07400000
ENDCHAR
STARTCHAR eng
ENCODING 331
SWIDTH 561 0
DWIDTH 9 0
BBX 9 12 0 -4
BITMAP
0E1E00
0F5740
0E8B00
1E0F00
2C1E00
742D00
B03800
A0B400
00E000
02C000
0B4000
1D0000
ENDCHAR
STARTCHAR Omacron
ENCODING 332
SWIDTH 655 0
DWIDTH 10 0
BBX 10 14 1 0
BITMAP
002FF0
000000
006F40
02D1D0
0B40E0
1E00E0
3C00E0
7801D0
B002C0
F00780
E00F00
E02D00
B0B400
2F9000
ENDCHAR
STARTCHAR omacron
ENCODING 333
SWIDTH 514 0
DWIDTH 8 0
BBX 9 10 0 0
BITMAP
01FF80
000000
01F800
0B5D00
2D0E00
3C1E00
782D00
747800
74F000
1F8000
ENDCHAR
STARTCHAR Obreve
ENCODING 334
SWIDTH 655 0
DWIDTH 10 0
BBX 11 16 1 0
BITMAP
000404
001D24
000B90
000000
006F40
02D1D0
0B40E0
1E00E0
3C00E0
7801D0
B002C0
F00780
E00F00
E02D00
B0B400
2F9000
ENDCHAR
STARTCHAR obreve
ENCODING 335
SWIDTH 514 0
DWIDTH 8 0
BBX 9 12 0 0
BITMAP
009080
00A180
007D00
000000
01F800
0B5D00
2D0E00
3C1E00
782D00
747800
74F000
1F8000
ENDCHAR
STARTCHAR Ohungarumlaut
ENCODING 336
SWIDTH 655 0
DWIDTH 10 0
BBX 11 16 1 0
BITMAP
000114
000728
001D74
001440
006F40
02D1D0
0B40E0
1E00E0
3C00E0
7801D0
B002C0
F00780
E00F00
E02D00
B0B400
2F9000
ENDCHAR
STARTCHAR ohungarumlaut
ENCODING 337
SWIDTH 514 0
DWIDTH 8 0
BBX 9 13 0 0
BITMAP
002480
0035C0
00A380
028900
000000
01F800
0B5D00
2D0E00
3C1E00
782D00
747800
74F000
1F8000
ENDCHAR
STARTCHAR OE
ENCODING 338
SWIDTH 900 0
DWIDTH 14 0
BBX 16 12 1 0
BITMAP
002FD6F8
00F47E0D
03C0781D
0B40F078
1E00E0A0
2D00E000
3C007F00
3801F400
7403D000
740B8080
282F8680
0BE5FE00
ENDCHAR
STARTCHAR oe
ENCODING 339
SWIDTH 777 0
DWIDTH 12 0
BBX 12 8 1 0
BITMAP
06E5B8
1E2F4D
782E1D
B43C7C
F07EE0
E0B900
E2F824
7F5FE0
ENDCHAR
STARTCHAR Racute
ENCODING 340
SWIDTH 623 0
DWIDTH 10 0
BBX 11 16 -1 0
BITMAP
000010
000034
0000B0
000140
01BF90
039038
01742C
00B02C
00E078
01D2E0
02EF40
07AC00
0B4E00
0E0B40
2C03C0
7401F4
ENDCHAR
STARTCHAR racute
ENCODING 341
SWIDTH 407 0
DWIDTH 7 0
BBX 8 13 0 0
BITMAP
0008
001D
0038
00A0
0000
1E2C
0EAC
0E80
1E00
2D00
3800
B400
A000
ENDCHAR
STARTCHAR Rcommaaccent
ENCODING 342
SWIDTH 623 0
DWIDTH 10 0
BBX 11 16 -1 -4
BITMAP
01BF90
039038
01742C
00B02C
00E078
01D2E0
02EF40
07AC00
0B4E00
0E0B40
2C03C0
7401F4
010000
03C000
028000
060000
ENDCHAR
STARTCHAR rcommaaccent
ENCODING 343
SWIDTH 407 0
DWIDTH 7 0
BBX 8 12 -1 -4
BITMAP
078B
03AB
03A0
0780
0B40
0E00
2D00
2800
1000
7800
3400
9000
ENDCHAR
STARTCHAR Rcaron
ENCODING 344
SWIDTH 623 0
DWIDTH 10 0
BBX 11 16 -1 0
BITMAP
000504
000B6C
0007E0
000000
01BF90
039038
01742C
00B02C
00E078
01D2E0
02EF40
07AC00
0B4E00
0E0B40
2C03C0
7401F4
ENDCHAR
STARTCHAR rcaron
ENCODING 345
SWIDTH 407 0
DWIDTH 7 0
BBX 9 12 0 0
BITMAP
018180
01DB40
00F400
000000
1E2C00
0EAC00
0E8000
1E0000
2D0000
380000
B40000
A00000
ENDCHAR
STARTCHAR Sacute
ENCODING 346
SWIDTH 474 0
DWIDTH 8 0
BBX 10 16 0 0
BITMAP
000040
0001D0
0002C0
000500
00BE00
038340
0B0280
0E0780
1E0F40
0F0900
0B8000
03D000
11E000
70A000
B4D000
2E4000
ENDCHAR
STARTCHAR sacute
ENCODING 347
SWIDTH 423 0
DWIDTH 7 0
BBX 8 13 0 0
BITMAP
0009
001D
0038
00A0
0000
06E4
1D38
1D24
0F00
0B80
53C0
A2C0
7E00
ENDCHAR
STARTCHAR Scircumflex
ENCODING 348
SWIDTH 474 0
DWIDTH 8 0
BBX 10 15 0 0
BITMAP
000780
002ED0
005050
00BE00
038340
0B0280
0E0780
1E0F40
0F0900
0B8000
03D000
11E000
70A000
B4D000
2E4000
ENDCHAR
STARTCHAR scircumflex
ENCODING 349
SWIDTH 423 0
DWIDTH 7 0
BBX 8 13 0 0
BITMAP
0004
002D
01ED
074A
0000
06E4
1D38
1D24
0F00
0B80
53C0
A2C0
7E00
ENDCHAR
STARTCHAR Scedilla
ENCODING 350
SWIDTH 474 0
DWIDTH 8 0
BBX 9 16 0 -4
BITMAP
00BE00
038340
0B0280
0E0780
1E1F40
0F0500
0B8000
02D000
10E000
B0A000
B5D000
2E4000
090000
0D0000
3D0000
100000
ENDCHAR
STARTCHAR scedilla
ENCODING 351
SWIDTH 423 0
DWIDTH 7 0
BBX 7 12 0 -4
BITMAP
06E4
1D38
1D24
0F00
0B80
03C0
A2C0
BE40
2800
1C00
2800
7400
ENDCHAR
STARTCHAR Scaron
ENCODING 352
SWIDTH 474 0
DWIDTH 8 0
BBX 10 16 0 0
BITMAP
001410
002DB0
001F80
000400
00BE00
038340
0B0280
0E0780
1E0F40
0F0900
0B8000
03D000
11E000
70A000
B4D000
2E4000
ENDCHAR
STARTCHAR scaron
ENCODING 353
SWIDTH 423 0
DWIDTH 7 0
BBX 9 12 0 0
BITMAP
018180
00EB40
00B800
000000
06E400
1D3800
1D2400
0F0000
0B8000
53C000
A2C000
7E0000
ENDCHAR
STARTCHAR Tcommaaccent
ENCODING 354
SWIDTH 471 0
DWIDTH 8 0
BBX 9 16 1 -4
BITMAP
6E9080
B0FF80
91E000
02D000
03C000
078000
074000
0B0000
0E0000
2D0000
380000
A00000
100000
740000
700000
900000
ENDCHAR
STARTCHAR tcommaaccent
ENCODING 355
SWIDTH 358 0
DWIDTH 6 0
BBX 6 14 0 -4
BITMAP
0280
0780
2FE0
0E00
1D00
2C00
3800
3400
3A80
2E00
1000
7800
3400
9000
ENDCHAR
STARTCHAR Tcaron
ENCODING 356
SWIDTH 471 0
DWIDTH 8 0
BBX 10 16 1 0
BITMAP
005010
0079D0
002E40
000000
6E9080
B0FF80
91E000
02D000
03C000
078000
074000
0B0000
0E0000
2D0000
380000
A00000
ENDCHAR
STARTCHAR tcaron
ENCODING 357
SWIDTH 497 0
DWIDTH 8 0
BBX 9 13 1 0
BITMAP
000340
000340
000700
034900
0B4000
2FE000
1D0000
2C0000
380000
740000
700000
764000
3E0000
ENDCHAR
STARTCHAR Tbar
ENCODING 358
SWIDTH 471 0
DWIDTH 8 0
BBX 9 12 1 0
BITMAP
6E9080
F0FF80
91E000
02D000
03C000
BFE000
0B4000
0F0000
1E0000
2C0000
780000
A00000
ENDCHAR
STARTCHAR tbar
ENCODING 359
SWIDTH 358 0
DWIDTH 6 0
BBX 6 10 0 0
BITMAP
0280
0780
2FE0
0E00
1D00
7FE0
3800
3400
3980
2E00
ENDCHAR
STARTCHAR Utilde
ENCODING 360
SWIDTH 624 0
DWIDTH 10 0
BBX 11 15 0 0
BITMAP
001B48
0022E0
000000
02D01C
02D038
02C0B4
0780F0
0B42E0
0E03D0
2D0BC0
3C0F80
782B40
B46B00
B18B00
7D07D0
ENDCHAR
STARTCHAR utilde
ENCODING 361
SWIDTH 553 0
DWIDTH 9 0
BBX 10 12 0 0
BITMAP
007D60
014B80
000000
000000
0F0280
0B0740
0E0F00
2D2E00
3C3C00
78A800
B67800
792E00
ENDCHAR
STARTCHAR Umacron
ENCODING 362
SWIDTH 624 0
DWIDTH 10 0
BBX 11 14 0 0
BITMAP
002FF4
000000
02D01C
02D038
02C0B4
0780F0
0B42E0
0E03D0
2D0BC0
3C0F80
782B40
B46B00
B18B00
7D07D0
ENDCHAR
STARTCHAR umacron
ENCODING 363
SWIDTH 553 0
DWIDTH 9 0
BBX 9 10 0 0
BITMAP
00FF80
000000
0F0280
0B0740
0E0F00
2D2E00
3C3C00
78A800
B67800
792E00
ENDCHAR
STARTCHAR Ubreve
ENCODING 364
SWIDTH 624 0
DWIDTH 10 0
BBX 11 16 0 0
BITMAP
000404
001D24
000B90
000000
02D01C
02D038
02C0B4
0780F0
0B42E0
0E03D0
2D0BC0
3C0F80
782B40
B46B00
B18B00
7D07D0
ENDCHAR
STARTCHAR ubreve
ENCODING 365
SWIDTH 553 0
DWIDTH 9 0
BBX 10 12 0 0
BITMAP
006050
007180
002E00
000000
0F0280
0B0740
0E0F00
2D2E00
3C3C00
78A800
B67800
792E00
ENDCHAR
STARTCHAR Uring
ENCODING 366
SWIDTH 624 0
DWIDTH 10 0
BBX 11 16 0 0
BITMAP
0002D0
000A70
000D70
000DA0
02DBAC
02D038
02C0B4
0780F0
0B42E0
0E03D0
2D0BC0
3C0F80
782B40
B46700
B18B00
7D07D0
ENDCHAR
STARTCHAR uring
ENCODING 367
SWIDTH 553 0
DWIDTH 9 0
BBX 9 12 0 0
BITMAP
002F40
007280
006E00
000000
0F0280
0B0740
0E0F00
2D2E00
3C3C00
78A800
B67800
792E00
ENDCHAR
STARTCHAR Uhungarumlaut
ENCODING 368
SWIDTH 624 0
DWIDTH 10 0
BBX 11 16 0 0
BITMAP
000104
000728
000D74
001440
02D01C
02D038
02C0B4
0780F0
0B42E0
0E03D0
2D0BC0
3C0F80
782B40
B46B00
B18B00
7D07D0
ENDCHAR
STARTCHAR uhungarumlaut
ENCODING 369
SWIDTH 553 0
DWIDTH 9 0
BBX 10 13 0 0
BITMAP
001850
0028D0
007280
018600
000000
0F0280
0B0740
0E0F00
2D2E00
3C3C00
78A800
B67800
792E00
ENDCHAR
STARTCHAR Uogonek
ENCODING 370
SWIDTH 684 0
DWIDTH 11 0
BBX 11 16 1 -4
BITMAP
078034
0380B4
0780F0
0B02D0
0E03C0
2D0B80
3C0F40
742F00
B06B00
E08E00
E24E00
B80BC0
000B00
002C00
003800
002D00
ENDCHAR
STARTCHAR uogonek
ENCODING 371
SWIDTH 553 0
DWIDTH 9 0
BBX 9 12 0 -4
BITMAP
0F0280
0B0740
0E0F00
2D2E00
3C3C00
78A800
B67800
792F00
002C00
007000
00E000
00B400
ENDCHAR
STARTCHAR Wcircumflex
ENCODING 372
SWIDTH 941 0
DWIDTH 15 0
BBX 15 15 1 0
BITMAP
00002C00
0002ED00
00010500
6E400074
5380007C
0780B03C
0F43D03C
1E0F8038
2D2F4074
78BB00B0
75DE00E0
B24E02C0
E60E0700
AC0E1D00
7407E000
ENDCHAR
STARTCHAR wcircumflex
ENCODING 373
SWIDTH 750 0
DWIDTH 12 0
BBX 12 13 0 0
BITMAP
000040
0002D0
000AE0
007470
000000
1E011D
0F0B0E
0E1E0E
1D3C0D
2CB81C
35B834
7A39A0
781F40
ENDCHAR
STARTCHAR Ycircumflex
ENCODING 374
SWIDTH 580 0
DWIDTH 9 0
BBX 11 20 0 -4
BITMAP
000180
0007D0
0028B0
000000
02D02C
02D038
02C0B4
0780F0
0B42D0
0E03C0
2D0B80
3C1F40
742B00
B06E00
B19C00
7D3800
00B000
01D000
074000
290000
ENDCHAR
STARTCHAR ycircumflex
ENCODING 375
SWIDTH 549 0
DWIDTH 9 0
BBX 9 18 0 -5
BITMAP
000100
000F00
007B40
029240
000000
0F0280
0B0780
0E0F40
1D1F00
3C3E00
78AD00
B66800
793400
00B000
00D000
028000
1B0000
280000
ENDCHAR
STARTCHAR Ydieresis
ENCODING 376
SWIDTH 580 0
DWIDTH 9 0
BBX 11 20 0 -4
BITMAP
001414
007CB8
002864
000000
02D02C
02D038
02C0B4
0780F0
0B42D0
0E03C0
2D0B80
3C1F40
742B00
B06E00
B19C00
7D3800
00B000
01D000
074000
290000
ENDCHAR
STARTCHAR Zacute
ENCODING 377
SWIDTH 501 0
DWIDTH 8 0
BBX 10 16 0 0
BITMAP
000040
0002C0
000740
000400
0FFFC0
0BE6D0
000BC0
002F40
00BD00
01F400
07D000
0F4000
2D0000
B80000
E6FC00
FFFD00
ENDCHAR
STARTCHAR zacute
ENCODING 378
SWIDTH 430 0
DWIDTH 7 0
BBX 8 13 0 0
BITMAP
0009
000E
002C
0060
0000
0EAC
067D
00B4
03D0
1F00
3800
BA90
B9A0
ENDCHAR
STARTCHAR Zdotaccent
ENCODING 379
SWIDTH 501 0
DWIDTH 8 0
BBX 10 16 0 0
BITMAP
001400
003D00
002800
000000
0FFFC0
0BE6D0
000BC0
002F00
00BD00
01F400
07D000
0F4000
2D0000
B40000
E6FC00
FAA900
ENDCHAR
STARTCHAR zdotaccent
ENCODING 380
SWIDTH 430 0
DWIDTH 7 0
BBX 8 12 0 0
BITMAP
00B0
00F0
0000
0000
0EAC
067D
00B4
03D0
1F00
3800
BA90
B9A0
ENDCHAR
STARTCHAR Zcaron
ENCODING 381
SWIDTH 501 0
DWIDTH 8 0
BBX 10 16 0 0
BITMAP
005010
0075D0
002E40
000000
0FFFC0
0BE6D0
000BC0
002F40
00BD00
01F400
07D000
0F4000
2D0000
B80000
E6FC00
FFFD00
ENDCHAR
STARTCHAR zcaron
ENCODING 382
SWIDTH 430 0
DWIDTH 7 0
BBX 9 12 0 0
BITMAP
028240
01DA00
00E400
000000
0EAC00
067D00
00B400
03D000
1F0000
380000
BA9000
B9A000
ENDCHAR
STARTCHAR florin
ENCODING 402
SWIDTH 466 0
DWIDTH 7 0
BBX 13 17 -3 -4
BITMAP
00002E00
0000A240
0002C740
00034E00
00070000
000F9000
007FF000
006D0000
002C0000
00380000
00740000
00B00000
00B00000
00E00000
52C00000
E3800000
7E000000
ENDCHAR
STARTCHAR AEacute
ENCODING 508
SWIDTH 878 0
DWIDTH 14 0
BBX 17 16 -1 0
BITMAP
0000001000
000000B000
000001D000
0000010000
00007EFE00
00029F8340
000A2D0700
001C3C2E00
0074782800
00E0380000
06FBFF8000
0740B80000
0A01F00000
1D01D06000
7801E6E000
E0007E4000
ENDCHAR
STARTCHAR aeacute
ENCODING 509
SWIDTH 770 0
DWIDTH 12 0
BBX 12 13 0 0
BITMAP
000090
0001D0
000380
000A00
000000
01F7BD
0B4F8B
1D0F0F
381D6D
743FE4
747D00
759D1C
2E0BE4
ENDCHAR
STARTCHAR Scommaaccent
ENCODING 536
SWIDTH 474 0
DWIDTH 8 0
BBX 9 16 0 -4
BITMAP
00BE00
038340
0B0280
0E0780
1E0F40
0F0900
0B8000
03D000
11E000
70A000
B4D000
2E4000
040000
1D0000
1D0000
240000
ENDCHAR
STARTCHAR scommaaccent
ENCODING 537
SWIDTH 423 0
DWIDTH 7 0
BBX 7 12 0 -4
BITMAP
06E4
1D38
1D24
0F00
0B80
53C0
A2C0
7E00
1400
3C00
2800
6000
ENDCHAR
STARTCHAR dotlessj
ENCODING 567
SWIDTH 277 0
DWIDTH 4 0
BBX 7 12 -3 -4
BITMAP
0078
0038
0038
0074
00B0
00E0
01D0
02C0
0740
0A00
2C00
A000
ENDCHAR
STARTCHAR circumflex
ENCODING 710
SWIDTH 354 0
DWIDTH 6 0
BBX 6 4 0 9
BITMAP
0040
03C0
1ED0
A4A0
ENDCHAR
STARTCHAR caron
ENCODING 711
SWIDTH 381 0
DWIDTH 6 0
BBX 5 3 1 9
BITMAP
9180
A740
B800
ENDCHAR
STARTCHAR breve
ENCODING 728
SWIDTH 344 0
DWIDTH 6 0
BBX 6 3 0 9
BITMAP
3010
7490
2E40
ENDCHAR
STARTCHAR dotaccent
ENCODING 729
SWIDTH 217 0
DWIDTH 3 0
BBX 3 3 1 9
BITMAP
B4
B4
10
ENDCHAR
STARTCHAR ring
ENCODING 730
SWIDTH 402 0
DWIDTH 6 0
BBX 5 4 2 8
BITMAP
2E00
A340
E740
7D00
ENDCHAR
STARTCHAR ogonek
ENCODING 731
SWIDTH 311 0
DWIDTH 5 0
BBX 5 5 0 -4
BITMAP
0140
0A00
2800
7400
3900
ENDCHAR
STARTCHAR tilde
ENCODING 732
SWIDTH 397 0
DWIDTH 6 0
BBX 6 2 1 10
BITMAP
6D20
8790
ENDCHAR
STARTCHAR hungarumlaut
ENCODING 733
SWIDTH 392 0
DWIDTH 6 0
BBX 7 4 0 9
BITMAP
0524
0E74
2CA0
6280
ENDCHAR
STARTCHAR pi
ENCODING 960
SWIDTH 640 0
DWIDTH 10 0
BBX 11 8 0 0
BITMAP
1BFFF4
028740
034B00
070E00
0E1D00
2C1D00
B81E40
E00F00
ENDCHAR
STARTCHAR uni1E02
ENCODING 7682
SWIDTH 551 0
DWIDTH 9 0
BBX 10 16 0 0
BITMAP
000500
001F00
000900
000000
06FE40
2E41D0
02C0E0
0781D0
0B43C0
1E1F40
2FFC00
391E00
340E00
741E00
347800
2F9000
ENDCHAR
STARTCHAR uni1E03
ENCODING 7683
SWIDTH 525 0
DWIDTH 8 0
BBX 9 13 0 0
BITMAP
028000
038780
038780
074100
0B0000
0EBD00
1E4E00
2E0E00
3C1E00
742D00
703C00
75B000
2F8000
ENDCHAR
STARTCHAR uni1E0A
ENCODING 7690
SWIDTH 630 0
DWIDTH 10 0
BBX 11 16 0 0
BITMAP
000500
000F40
000A00
000000
0AFE40
1E01E0
0190B0
03C074
078074
0F00B0
1E00E0
2D02D0
3C0780
381E00
74B800
2F9000
ENDCHAR
STARTCHAR uni1E0B
ENCODING 7691
SWIDTH 557 0
DWIDTH 9 0
BBX 11 13 0 0
BITMAP
000074
02D0B0
03D0E0
0041D0
0002C0
01BB80
074B40
1D0F00
2C0E00
382D00
747C00
74EC00
2E5E40
ENDCHAR
STARTCHAR uni1E1E
ENCODING 7710
SWIDTH 518 0
DWIDTH 8 0
BBX 10 16 0 0
BITMAP
000100
000B80
000600
000000
1FFFE0
383540
20B000
00F000
01E000
02D000
0BFE00
0B8000
0B4000
0E0000
2C0000
740000
ENDCHAR
STARTCHAR uni1E1F
ENCODING 7711
SWIDTH 393 0
DWIDTH 6 0
BBX 10 18 -1 -2
BITMAP
000500
001F00
000900
000A80
002CE0
0075E0
00B2C0
00E000
01D000
0BFE00
078000
074000
074000
0B0000
0E0000
1D0000
3C0000
740000
ENDCHAR
STARTCHAR uni1E40
ENCODING 7744
SWIDTH 931 0
DWIDTH 15 0
BBX 17 16 -2 0
BITMAP
0000001400
0000007C00
0000002400
0000000000
00006C07C0
0001BC1F80
0007783740
000DB4AB00
0028F1CE00
0074E25D00
00A1D72D00
01C2D93C00
0382D83800
0B02E47400
1D02E07800
7401C02E00
ENDCHAR
STARTCHAR uni1E41
ENCODING 7745
SWIDTH 814 0
DWIDTH 13 0
BBX 13 12 0 0
BITMAP
0002C000
0003C000
00000000
00000000
0E1E1B00
0F676740
0E8B8B00
1E0F1E00
2C1D2D00
743C3800
B0743E00
A0702E00
ENDCHAR
STARTCHAR uni1E56
ENCODING 7766
SWIDTH 553 0
DWIDTH 9 0
BBX 11 16 -1 0
BITMAP
000050
0001E0
000190
000000
01BF90
079078
01742C
00B038
01E0B4
02D7D0
03F900
074000
0B0000
1D0000
280000
700000
ENDCHAR
STARTCHAR uni1E57
ENCODING 7767
SWIDTH 550 0
DWIDTH 9 0
BBX 10 16 -1 -4
BITMAP
001E00
001E00
000400
000000
075B40
07A2C0
07C2D0
0B42C0
0F0380
0E0B40
1E2D00
2EE400
380000
740000
B00000
D00000
ENDCHAR
STARTCHAR uni1E60
ENCODING 7776
SWIDTH 474 0
DWIDTH 8 0
BBX 9 16 0 0
BITMAP
000500
001F00
000900
000000
00BE00
038340
0B0280
0E0780
1E0F40
0F0900
0B8000
03D000
11E000
70A000
B4D000
2E4000
ENDCHAR
STARTCHAR uni1E61
ENCODING 7777
SWIDTH 423 0
DWIDTH 7 0
BBX 7 12 0 0
BITMAP
0078
00B8
0010
0000
06E4
1D38
1D24
0F00
0B80
53C0
A2C0
7E00
ENDCHAR
STARTCHAR uni1E6A
ENCODING 7786
SWIDTH 430 0
DWIDTH 7 0
BBX 10 16 0 0
BITMAP
000500
001F00
000900
000000
1FA420
787FD0
70B400
00F000
01E000
02D000
03C000
038000
074000
0E0000
1D0000
740000
ENDCHAR
STARTCHAR uni1E6B
ENCODING 7787
SWIDTH 358 0
DWIDTH 6 0
BBX 6 12 1 0
BITMAP
02D0
02D0
0740
0B00
7F90
2C00
3800
7400
B000
B000
B640
7D00
ENDCHAR
STARTCHAR Wgrave
ENCODING 7808
SWIDTH 941 0
DWIDTH 15 0
BBX 15 16 1 0
BITMAP
00004000
0001D000
0000E000
00001000
6E400074
5380007C
0780B03C
0F43D03C
1E0F8038
2D2F4074
78BB00B0
75DE01E0
B34E02C0
EA0E0B00
BC0E6D00
7407E000
ENDCHAR
STARTCHAR wgrave
ENCODING 7809
SWIDTH 750 0
DWIDTH 12 0
BBX 12 12 0 0
BITMAP
000A00
000E00
000700
000100
1E011D
0F0B0E
0E1E0E
1D3C0D
2CB81C
35B834
7A39A0
781F40
ENDCHAR
STARTCHAR Wacute
ENCODING 7810
SWIDTH 941 0
DWIDTH 15 0
BBX 15 16 1 0
BITMAP
00000400
00000E00
00002D00
00001000
6E400074
5380007C
0780B03C
0F43D03C
1E0F8038
2D2F4074
78BB00B0
75DE00E0
B24E02C0
E60E0700
AC0E1D00
7407E000
ENDCHAR
STARTCHAR wacute
ENCODING 7811
SWIDTH 750 0
DWIDTH 12 0
BBX 12 13 0 0
BITMAP
000040
0001D0
0002C0
000B40
000400
1E011D
0F0B0E
0E1E0E
1D3C0D
2CB81C
35B834
7A39A0
781F40
ENDCHAR
STARTCHAR Wdieresis
ENCODING 7812
SWIDTH 941 0
DWIDTH 15 0
BBX 15 15 1 0
BITMAP
00078B40
00078B40
00010100
6E400074
5380007C
0780B03C
0F43D03C
1E0F8038
2D2F4074
78BB00B0
75DE01E0
B34E02C0
EA0E0B00
BC0E6D00
7407E000
ENDCHAR
STARTCHAR wdieresis
ENCODING 7813
SWIDTH 750 0
DWIDTH 12 0
BBX 12 12 0 0
BITMAP
003874
007CB4
001010
000000
1E011D
0F0B0E
0E1E0E
1D3C0D
2CB81C
35B834
7A39A0
781F40
ENDCHAR
STARTCHAR Ygrave
ENCODING 7922
SWIDTH 580 0
DWIDTH 9 0
BBX 11 20 0 -4
BITMAP
000D00
001E00
000740
000000
02D02C
02D038
02C0B4
0780F0
0B42D0
0E03C0
2D0B80
3C1F40
742B00
B06E00
B19C00
7D3800
00B000
01D000
074000
290000
ENDCHAR
STARTCHAR ygrave
ENCODING 7923
SWIDTH 549 0
DWIDTH 9 0
BBX 9 17 0 -5
BITMAP
007400
007400
002800
000400
0F0280
0B0780
0E0F40
1D1F00
3C3E00
78AD00
B66800
793400
00B000
00D000
028000
1B0000
280000
ENDCHAR
STARTCHAR endash
ENCODING 8211
SWIDTH 751 0
DWIDTH 12 0
BBX 10 1 1 4
BITMAP
7FFFE0
ENDCHAR
STARTCHAR emdash
ENCODING 8212
SWIDTH 1066 0
DWIDTH 17 0
BBX 15 1 1 4
BITMAP
7FFFFFF8
ENDCHAR
STARTCHAR quoteleft
ENCODING 8216
SWIDTH 268 0
DWIDTH 4 0
BBX 3 4 2 9
BITMAP
28
70
B0
B0
ENDCHAR
STARTCHAR quoteright
ENCODING 8217
SWIDTH 268 0
DWIDTH 4 0
BBX 3 4 2 9
BITMAP
28
2C
28
60
ENDCHAR
STARTCHAR quotesinglbase
ENCODING 8218
SWIDTH 268 0
DWIDTH 4 0
BBX 3 4 0 -2
BITMAP
38
38
34
A0
ENDCHAR
STARTCHAR quotedblleft
ENCODING 8220
SWIDTH 485 0
DWIDTH 8 0
BBX 7 4 2 9
BITMAP
1864
74D0
B2D0
B1D0
ENDCHAR
STARTCHAR quotedblright
ENCODING 8221
SWIDTH 480 0
DWIDTH 8 0
BBX 7 4 2 9
BITMAP
1D74
1D74
2870
6180
ENDCHAR
STARTCHAR quotedblbase
ENCODING 8222
SWIDTH 463 0
DWIDTH 7 0
BBX 6 4 0 -2
BITMAP
38E0
38B0
34A0
A280
ENDCHAR
STARTCHAR dagger
ENCODING 8224
SWIDTH 488 0
DWIDTH 8 0
BBX 7 12 1 0
BITMAP
01D0
02D0
12D4
3FF8
0780
0B40
0F00
0D00
1C00
2800
7000
5000
ENDCHAR
STARTCHAR daggerdbl
ENCODING 8225
SWIDTH 488 0
DWIDTH 8 0
BBX 7 12 1 0
BITMAP
01D0
02D0
02D4
2FF8
0780
0B40
0F50
BFD0
1C00
2800
3000
5000
ENDCHAR
STARTCHAR bullet
ENCODING 8226
SWIDTH 437 0
DWIDTH 7 0
BBX 4 4 2 3
BITMAP
7D
FE
FD
64
ENDCHAR
STARTCHAR ellipsis
ENCODING 8230
SWIDTH 810 0
DWIDTH 13 0
BBX 12 3 0 -1
BITMAP
783C2D
B87C3D
101404
ENDCHAR
STARTCHAR perthousand
ENCODING 8240
SWIDTH 1184 0
DWIDTH 19 0
BBX 17 12 1 0
BITMAP
1B80600000
39D1D00000
B1D3800000
A2CB000000
A39D000000
2E38000000
00B1A41E00
01D768B280
038E2CE280
0B0D39D380
1D0D75DB00
2407D0B900
ENDCHAR
STARTCHAR guilsinglleft
ENCODING 8249
SWIDTH 413 0
DWIDTH 7 0
BBX 5 7 1 1
BITMAP
0180
0B00
7800
B000
3800
0E00
0100
ENDCHAR
STARTCHAR guilsinglright
ENCODING 8250
SWIDTH 416 0
DWIDTH 7 0
BBX 5 7 1 1
BITMAP
3400
2D00
0B40
0780
2D00
A000
4000
ENDCHAR
STARTCHAR fraction
ENCODING 8260
SWIDTH 580 0
DWIDTH 9 0
BBX 9 13 0 0
BITMAP
000180
000340
000A00
001D00
003800
007000
00D000
02C000
074000
0A0000
1C0000
380000
600000
ENDCHAR
STARTCHAR Euro
ENCODING 8364
SWIDTH 622 0
DWIDTH 10 0
BBX 10 12 1 0
BITMAP
001B80
00B4A0
02D0E0
0783D0
0F0240
7FE000
2D0000
BF9000
3C0000
2C0000
1D1D00
07F800
ENDCHAR
STARTCHAR trademark
ENCODING 8482
SWIDTH 1084 0
DWIDTH 17 0
BBX 14 7 2 5
BITMAP
7FF9E1E0
0742E3D0
0A06A9D0
0D09E9C0
1C18F5C0
0D34A1D0
00000040
ENDCHAR
STARTCHAR Omega
ENCODING 8486
SWIDTH 839 0
DWIDTH 13 0
BBX 12 12 1 0
BITMAP
06EF40
1E01E0
380078
74003C
B0002D
B0002D
B4002D
74003C
3C0074
1D00E0
97429A
FFC7FD
ENDCHAR
STARTCHAR partialdiff
ENCODING 8706
SWIDTH 580 0
DWIDTH 9 0
BBX 9 13 0 0
BITMAP
006E00
00E280
00D1C0
0001C0
01FAC0
0B87C0
1E0380
3C0740
780F00
B41E00
B43C00
74B400
2F8000
ENDCHAR
STARTCHAR Delta
ENCODING 8710
SWIDTH 663 0
DWIDTH 11 0
BBX 10 10 0 0
BITMAP
001000
007800
00EC00
028E00
030B00
090380
1C02C0
2401D0
7000B0
BFFFF0
ENDCHAR
STARTCHAR product
ENCODING 8719
SWIDTH 667 0
DWIDTH 11 0
BBX 9 14 1 -2
BITMAP
7AAB40
B00780
B00780
B00780
B00780
B00780
B00780
B00780
B00780
B00780
B00780
B00780
B00740
400100
ENDCHAR
STARTCHAR summation
ENCODING 8721
SWIDTH 677 0
DWIDTH 11 0
BBX 10 14 0 -2
BITMAP
1FFFE0
1E0000
0B8000
07D000
01F000
00B800
003800
007400
01D000
078000
0E0000
2C0000
7FFFD0
155540
ENDCHAR
STARTCHAR minus
ENCODING 8722
SWIDTH 617 0
DWIDTH 10 0
BBX 8 2 1 5
BITMAP
5555
AAA9
ENDCHAR
STARTCHAR radical
ENCODING 8730
SWIDTH 709 0
DWIDTH 11 0
BBX 13 15 0 0
BITMAP
00000280
00000380
00000B00
00000E00
00002C00
00003800
0000B000
0A01D000
2F028000
57474000
038A0000
039C0000
02E40000
01F00000
01D00000
ENDCHAR
STARTCHAR infinity
ENCODING 8734
SWIDTH 681 0
DWIDTH 11 0
BBX 10 6 1 3
BITMAP
040500
7F6F80
E2F4D0
C2E0D0
AFBB80
190500
ENDCHAR
STARTCHAR integral
ENCODING 8747
SWIDTH 583 0
DWIDTH 9 0
BBX 13 18 -2 -3
BITMAP
00001B80
000038C0
0000B1C0
0000E380
0002D100
00038000
00078000
000B4000
000F0000
000E0000
001D0000
002C0000
00380000
00740000
2CB00000
75D00000
63C00000
2E000000
ENDCHAR
STARTCHAR approxequal
ENCODING 8776
SWIDTH 671 0
DWIDTH 11 0
BBX 9 7 1 2
BITMAP
1B8080
3AE680
90BE00
051400
2F8140
A7EB00
80B900
ENDCHAR
STARTCHAR notequal
ENCODING 8800
SWIDTH 617 0
DWIDTH 10 0
BBX 8 10 1 1
BITMAP
000A
001C
0074
BFFF
01C0
0340
BFFF
1D54
2800
6000
ENDCHAR
STARTCHAR lessequal
ENCODING 8804
SWIDTH 704 0
DWIDTH 11 0
BBX 8 11 1 0
BITMAP
0006
002D
02E0
1E40
F400
6D00
07D0
0078
000A
0000
BFFE
ENDCHAR
STARTCHAR greaterequal
ENCODING 8805
SWIDTH 617 0
DWIDTH 10 0
BBX 8 11 1 0
BITMAP
9000
7900
0B90
00B8
002E
01B8
0B80
7900
9000
0000
FFFE
ENDCHAR
STARTCHAR lozenge
ENCODING 9674
SWIDTH 580 0
DWIDTH 9 0
BBX 8 12 1 0
BITMAP
0740
0BC0
1CE0
3470
A028
D01D
D00D
B028
3870
1DE0
0BC0
0340
ENDCHAR
STARTCHAR commaaccent
ENCODING 63171
SWIDTH 250 0
DWIDTH 4 0
BBX 2 4 1 -4
BITMAP
10
B0
B0
D0
ENDCHAR
STARTCHAR ff
ENCODING 64256
SWIDTH 773 0
DWIDTH 12 0
BBX 16 15 -1 -2
BITMAP
000B80B8
002CE2CA
0075E38E
00B2C75C
00E00B00
01D00E00
0BFFFFD0
1B802C00
07803800
07407400
0B00B000
0E00E000
1D01D000
3C02C000
74034000
ENDCHAR
STARTCHAR fi
ENCODING 64257
SWIDTH 623 0
DWIDTH 10 0
BBX 12 15 -1 -2
BITMAP
0002F4
001E1D
00381D
00742C
00E014
01FFF4
1FD074
0780B0
0740E0
0B01D0
0B02C0
0E0380
1D02E0
380000
740000
ENDCHAR
STARTCHAR fl
ENCODING 64258
SWIDTH 637 0
DWIDTH 10 0
BBX 12 15 -1 -2
BITMAP
0006F8
001E1D
003C0E
00741D
00F02C
01E038
07FD74
0780B0
0780E0
0741D0
0B02C0
0E02C0
2D01E0
380000
740000
ENDCHAR
STARTCHAR .notdef
ENCODING -1
SWIDTH 896 0
DWIDTH 14 0
BBX 15 14 1 0
BITMAP
01FFFFF8
02FFFFF8
03FFFFF4
07E7E2F0
0BD34BE0
0FD22FD0
1FD0BFC0
2FE1FF80
2FD1FF80
3F54AF40
7D7C1F00
BFFFBE00
FFFFFD00
FFFFF800
ENDCHAR
ENDFONT
